<?xml version="1.0" encoding="UTF-8" standalone="no"?>
<svg
   xmlns:dc="http://purl.org/dc/elements/1.1/"
   xmlns:cc="http://creativecommons.org/ns#"
   xmlns:rdf="http://www.w3.org/1999/02/22-rdf-syntax-ns#"
   xmlns:svg="http://www.w3.org/2000/svg"
   xmlns="http://www.w3.org/2000/svg"
   xmlns:sodipodi="http://sodipodi.sourceforge.net/DTD/sodipodi-0.dtd"
   xmlns:inkscape="http://www.inkscape.org/namespaces/inkscape"
   width="19.755573"
   height="19.889061"
   viewBox="0 0 19.755573 19.889061"
   fill="none"
   version="1.1"
   id="svg100"
   sodipodi:docname="0-e.svg"
   inkscape:version="1.0.1 (1.0.1+r74)">
  <metadata
     id="metadata106">
    <rdf:RDF>
      <cc:Work
         rdf:about="">
        <dc:format>image/svg+xml</dc:format>
        <dc:type
           rdf:resource="http://purl.org/dc/dcmitype/StillImage" />
        <dc:title></dc:title>
      </cc:Work>
    </rdf:RDF>
  </metadata>
  <defs
     id="defs104" />
  <sodipodi:namedview
     pagecolor="#ffffff"
     bordercolor="#666666"
     borderopacity="1"
     objecttolerance="10"
     gridtolerance="10"
     guidetolerance="10"
     inkscape:pageopacity="0"
     inkscape:pageshadow="2"
     inkscape:window-width="1366"
     inkscape:window-height="744"
     id="namedview102"
     showgrid="false"
     inkscape:zoom="11.416667"
     inkscape:cx="10.978574"
     inkscape:cy="9.8890603"
     inkscape:window-x="0"
     inkscape:window-y="0"
     inkscape:window-maximized="1"
     inkscape:current-layer="svg100" />
  <path
     d="m 9.7565736,1.6670603 c -1.0728,-0.0044 -2.134,0.2228 -3.111,0.666 1.889,0.89 3.11,2.89 3.11,5.112 0,3.1099997 -2.444,5.5549997 -5.555,5.5549997 -0.778,0 -1.555,-0.222 -2.222,-0.444 1.111,3.333 4.222,5.666 7.778,5.666 4.5550004,0 8.2220004,-3.777 8.2220004,-8.222 0,-4.6669997 -3.778,-8.3329997 -8.2220004,-8.3329997 z"
     fill="#ffffff"
     id="path94" />
  <path
     d="m 9.7565736,1.6670603 c -1.0728,-0.0044 -2.134,0.2228 -3.111,0.666 1.889,0.89 3.11,2.89 3.11,5.112 0,3.1099997 -2.444,5.5549997 -5.555,5.5549997 -0.778,0 -1.555,-0.222 -2.222,-0.444 1.111,3.333 4.222,5.666 7.778,5.666 4.5550004,0 8.2220004,-3.777 8.2220004,-8.222 0.111,-4.6669997 -3.667,-8.3329997 -8.2220004,-8.3329997 z"
     fill="#ffffff"
     id="path96" />
  <path
     d="m 9.7565736,1.6670603 c 4.5550004,0 8.2220004,3.778 8.2220004,8.222 0,4.4439997 -3.778,8.2219997 -8.2220004,8.2219997 -3.667,0 -6.778,-2.444 -7.778,-5.666 0.667,0.222 1.444,0.444 2.222,0.444 3.111,0 5.556,-2.444 5.556,-5.5559997 0,-2.222 -1.222,-4.11 -3.111,-5.11 1,-0.445 2,-0.556 3.11,-0.556 z M 9.7555736,6.0275762e-5 C 8.4668736,-0.00423972 7.1877736,0.22156028 5.9785736,0.66706028 c -0.667,0.222 -1.778,0.88900002 -1.889,1.55500002 0,0.667 3.778,1.445 3.778,5.111 0.0041,0.4973 -0.0908,0.9904 -0.2792,1.4507 -0.1884,0.4602 -0.4665,0.8783 -0.8181,1.2299997 -0.3517,0.3516 -0.7698,0.6298 -1.2301,0.8182 -0.4602,0.1884 -0.9533,0.2833 -1.4506,0.2791 -2.111,0 -3.33300005,-1.11 -3.77800005,-0.666 -0.555,0.444 -0.222,1.888 -0.11,2.555 1.33200005,4.222 5.10900005,6.889 9.55400005,6.889 5.5550004,0 10.0000004,-4.556 10.0000004,-9.9999997 0,-5.444 -4.445,-9.889000024238 -10.0000004,-9.889000024238 z"
     fill="#2a2a2a"
     id="path98" />
</svg>
