<?xml version="1.0" encoding="UTF-8" standalone="no"?>
<svg
   xmlns:dc="http://purl.org/dc/elements/1.1/"
   xmlns:cc="http://creativecommons.org/ns#"
   xmlns:rdf="http://www.w3.org/1999/02/22-rdf-syntax-ns#"
   xmlns:svg="http://www.w3.org/2000/svg"
   xmlns="http://www.w3.org/2000/svg"
   xmlns:sodipodi="http://sodipodi.sourceforge.net/DTD/sodipodi-0.dtd"
   xmlns:inkscape="http://www.inkscape.org/namespaces/inkscape"
   width="29.007999"
   height="29.00803"
   viewBox="0 0 29.007999 29.00803"
   fill="none"
   version="1.1"
   id="svg14"
   sodipodi:docname="1-e.svg"
   inkscape:version="1.0.1 (1.0.1+r74)">
  <metadata
     id="metadata20">
    <rdf:RDF>
      <cc:Work
         rdf:about="">
        <dc:format>image/svg+xml</dc:format>
        <dc:type
           rdf:resource="http://purl.org/dc/dcmitype/StillImage" />
        <dc:title></dc:title>
      </cc:Work>
    </rdf:RDF>
  </metadata>
  <defs
     id="defs18" />
  <sodipodi:namedview
     pagecolor="#ffffff"
     bordercolor="#666666"
     borderopacity="1"
     objecttolerance="10"
     gridtolerance="10"
     guidetolerance="10"
     inkscape:pageopacity="0"
     inkscape:pageshadow="2"
     inkscape:window-width="1366"
     inkscape:window-height="744"
     id="namedview16"
     showgrid="false"
     inkscape:zoom="11.916667"
     inkscape:cx="15"
     inkscape:cy="14.00403"
     inkscape:window-x="0"
     inkscape:window-y="0"
     inkscape:window-maximized="1"
     inkscape:current-layer="svg14" />
  <path
     d="m 14.504,22.69703 c -1.0766,0.0025 -2.1431,-0.2077 -3.1383,-0.6186 -0.9951,-0.4108 -1.8993,-1.0142 -2.6606,-1.7755 -0.7613,-0.7613 -1.3647,-1.6655 -1.7756,-2.6606 -0.4108,-0.9952 -0.621,-2.0617 -0.6185,-3.1383 -0.0025,-1.0767 0.2077,-2.1432 0.6185,-3.1383 0.4109,-0.9952 1.0143,-1.8994 1.7756,-2.6606 0.7613,-0.7613 1.6655,-1.3647 2.6606,-1.7756 0.9952,-0.4108 2.0617,-0.621 3.1383,-0.6185 1.0766,-0.0025 2.1431,0.2077 3.1383,0.6185 0.9951,0.4109 1.8993,1.0143 2.6606,1.7756 0.7613,0.7612 1.3647,1.6654 1.7755,2.6606 0.4109,0.9951 0.6211,2.0616 0.6186,3.1383 0.0025,1.0766 -0.2077,2.1431 -0.6186,3.1383 -0.4108,0.9951 -1.0142,1.8993 -1.7755,2.6606 -0.7613,0.7613 -1.6655,1.3647 -2.6606,1.7755 -0.9952,0.4109 -2.0617,0.6211 -3.1383,0.6186 z m 0,-14.614 c -1.7026,0.0013 -3.335,0.6782 -4.5389,1.8821 -1.2039,1.2039 -1.8808,2.8363 -1.8821,4.5389 0.0013,1.7025 0.6782,3.335 1.8821,4.5388 1.2039,1.2039 2.8363,1.8808 4.5389,1.8822 1.7025,-0.0014 3.335,-0.6783 4.5389,-1.8822 1.2039,-1.2038 1.8808,-2.8363 1.8821,-4.5388 -0.0013,-1.7026 -0.6782,-3.335 -1.8821,-4.5389 -1.2039,-1.2039 -2.8364,-1.8808 -4.5389,-1.8821 z"
     fill="#2a2a2a"
     id="path2" />
  <path
     d="m 14.504,8.08303 c -1.7025,0.0013 -3.335,0.6782 -4.5389,1.8821 -1.2038,1.2039 -1.8808,2.8363 -1.8821,4.5389 0.0013,1.7025 0.6783,3.335 1.8821,4.5388 1.2039,1.2039 2.8364,1.8809 4.5389,1.8822 1.7026,-0.0013 3.335,-0.6783 4.5389,-1.8822 1.2039,-1.2038 1.8808,-2.8363 1.8821,-4.5388 -0.0013,-1.7026 -0.6782,-3.335 -1.8821,-4.5389 -1.2039,-1.2039 -2.8363,-1.8808 -4.5389,-1.8821 z"
     fill="#ef9d33"
     id="path4" />
  <path
     d="m 14.504,29.00803 c -0.443,0 -0.886,-0.333 -0.886,-0.886 v -2.879 c 0,-0.443 0.332,-0.885 0.886,-0.885 0.554,0 0.886,0.332 0.886,0.885 v 2.879 c 0,0.553 -0.443,0.886 -0.886,0.886 z m 0,-24.358 c -0.443,0 -0.886,-0.332 -0.886,-0.885 v -2.879 C 13.618,0.44303 13.95,0 14.504,0 15.058,0 15.39,0.33303 15.39,0.88603 v 2.879 c 0,0.553 -0.443,0.885 -0.886,0.885 z"
     fill="#2a2a2a"
     id="path6" />
  <path
     d="M 3.764,15.39003 H 0.886 c -0.443,0 -0.886,-0.332 -0.886,-0.886 0,-0.443 0.333,-0.886 0.886,-0.886 h 2.879 c 0.443,0 0.885,0.332 0.885,0.886 0,0.554 -0.442,0.886 -0.885,0.886 z m 24.358,0 h -2.879 c -0.443,0 -0.885,-0.332 -0.885,-0.886 0,-0.443 0.332,-0.886 0.885,-0.886 h 2.879 c 0.443,0 0.886,0.332 0.886,0.886 -0.111,0.554 -0.443,0.886 -0.886,0.886 z"
     fill="#2a2a2a"
     id="path8" />
  <path
     d="m 4.872,25.02203 c -0.222,0 -0.443,-0.11 -0.664,-0.222 -0.1593,-0.1625 -0.2486,-0.3809 -0.2486,-0.6085 0,-0.2276 0.0893,-0.446 0.2486,-0.6085 l 1.992,-1.993 c 0.1625,-0.1596 0.3812,-0.2491 0.609,-0.2491 0.2278,0 0.4465,0.0895 0.609,0.2491 0.1596,0.1625 0.2491,0.3812 0.2491,0.609 0,0.2278 -0.0895,0.4465 -0.2491,0.609 l -1.993,1.992 c -0.11,0.111 -0.442,0.222 -0.553,0.222 z m 17.161,-17.161 c -0.222,0 -0.443,-0.11 -0.665,-0.221 -0.1596,-0.1625 -0.2491,-0.3812 -0.2491,-0.609 0,-0.2278 0.0895,-0.4465 0.2491,-0.609 l 1.993,-1.993 c 0.1625,-0.1596 0.3812,-0.2491 0.609,-0.2491 0.2278,0 0.4465,0.0895 0.609,0.2491 0.1596,0.1625 0.2491,0.3812 0.2491,0.609 0,0.2278 -0.0895,0.4465 -0.2491,0.609 l -1.993,1.993 c -0.1515,0.1383 -0.348,0.2168 -0.553,0.221 z"
     fill="#2a2a2a"
     id="path10" />
  <path
     d="m 6.864,7.86103 c -0.22,0 -0.442,-0.11 -0.664,-0.221 l -1.992,-1.993 c -0.1596,-0.1625 -0.2491,-0.3812 -0.2491,-0.609 0,-0.2278 0.0895,-0.4465 0.2491,-0.609 0.1625,-0.1593 0.3809,-0.2486 0.6085,-0.2486 0.2276,0 0.446,0.0893 0.6085,0.2486 l 1.993,1.993 c 0.1596,0.1625 0.2491,0.3812 0.2491,0.609 0,0.2278 -0.0895,0.4465 -0.2491,0.609 -0.11,0.11 -0.221,0.221 -0.553,0.221 z m 17.272,17.161 c -0.221,0 -0.443,-0.11 -0.664,-0.222 l -1.993,-1.992 c -0.1596,-0.1625 -0.2491,-0.3812 -0.2491,-0.609 0,-0.2278 0.0895,-0.4465 0.2491,-0.609 0.1625,-0.1596 0.3812,-0.2491 0.609,-0.2491 0.2278,0 0.4465,0.0895 0.609,0.2491 l 1.993,1.993 c 0.1593,0.1625 0.2486,0.3809 0.2486,0.6085 0,0.2276 -0.0893,0.446 -0.2486,0.6085 -0.1516,0.1388 -0.3485,0.2178 -0.554,0.222 z"
     fill="#2a2a2a"
     id="path12" />
</svg>
