<?xml version="1.0" encoding="UTF-8" standalone="no"?>
<svg
   xmlns:dc="http://purl.org/dc/elements/1.1/"
   xmlns:cc="http://creativecommons.org/ns#"
   xmlns:rdf="http://www.w3.org/1999/02/22-rdf-syntax-ns#"
   xmlns:svg="http://www.w3.org/2000/svg"
   xmlns="http://www.w3.org/2000/svg"
   xmlns:sodipodi="http://sodipodi.sourceforge.net/DTD/sodipodi-0.dtd"
   xmlns:inkscape="http://www.inkscape.org/namespaces/inkscape"
   width="48"
   height="33.949383"
   viewBox="0 0 48 33.949383"
   fill="none"
   version="1.1"
   id="svg26"
   sodipodi:docname="11.svg"
   inkscape:version="1.0.1 (1.0.1+r74)">
  <metadata
     id="metadata30">
    <rdf:RDF>
      <cc:Work
         rdf:about="">
        <dc:format>image/svg+xml</dc:format>
        <dc:type
           rdf:resource="http://purl.org/dc/dcmitype/StillImage" />
      </cc:Work>
    </rdf:RDF>
  </metadata>
  <sodipodi:namedview
     pagecolor="#ffffff"
     bordercolor="#666666"
     borderopacity="1"
     objecttolerance="10"
     gridtolerance="10"
     guidetolerance="10"
     inkscape:pageopacity="0"
     inkscape:pageshadow="2"
     inkscape:window-width="748"
     inkscape:window-height="480"
     id="namedview28"
     showgrid="false"
     inkscape:zoom="11.916667"
     inkscape:cx="24"
     inkscape:cy="9.9493844"
     inkscape:window-x="0"
     inkscape:window-y="0"
     inkscape:window-maximized="0"
     inkscape:current-layer="svg26" />
  <g
     clip-path="url(#clip0)"
     id="g12"
     transform="translate(0,-14.050616)">
    <g
       filter="url(#filter0_f)"
       id="g4">
      <path
         d="m 37.5,34 h -27 C 8.01472,34 6,36.0147 6,38.5 6,40.9853 8.01472,43 10.5,43 h 27 C 39.9853,43 42,40.9853 42,38.5 42,36.0147 39.9853,34 37.5,34 Z"
         fill="#ffffff"
         id="path2" />
    </g>
    <path
       d="m 34.135,19.58 c -0.9396,-0.079 -1.8856,-0.0197 -2.808,0.176 -0.5124,-1.6829 -1.5619,-3.1516 -2.988,-4.1815 -1.4261,-1.0299 -3.1504,-1.5643 -4.909,-1.5215 -3.948,0 -7.02,2.457 -7.458,5.615 -0.3078,-0.0783 -0.626,-0.1077 -0.943,-0.087 H 13.932 C 10.072,19.844 7,22.651 7,26.074 c 0,3.597 3.29,6.492 7.459,6.492 h 16.78 c 4.036,0 8.248,-1.579 8.248,-7.107 0.0057,-1.4719 -0.541,-2.8924 -1.5319,-3.9807 C 36.9641,20.39 35.601,19.7129 34.135,19.581 Z m 3.597,6.669 c -0.439,4.124 -4.826,4.475 -6.142,4.475 H 14.305 C 12.638,30.724 9.128,29.32 8.821,26.688 8.75501,26.059 8.81828,25.4233 9.00693,24.8197 9.19557,24.2161 9.50561,23.6574 9.918,23.178 c 0.4558,-0.5426 1.0179,-0.986 1.6517,-1.303 0.6338,-0.317 1.3258,-0.5008 2.0333,-0.54 h 0.9 c 0.6451,-0.0258 1.2861,0.114 1.862,0.406 0.5759,0.2919 1.0675,0.7264 1.428,1.262 0,0 0.175,0.175 0.175,0.263 0.181,0.37 0.554,0.607 0.965,0.614 0.1487,0.0124 0.2975,-0.0236 0.424,-0.1027 0.1266,-0.0792 0.2241,-0.1971 0.278,-0.3363 0.0762,-0.2645 0.0755,-0.5452 -0.002,-0.8092 -0.0776,-0.2641 -0.2288,-0.5006 -0.436,-0.6818 -0.44,-0.439 -0.702,-0.615 -0.878,-0.79 -0.175,-0.175 -0.35,-0.263 -0.439,-0.526 0.158,-1.3318 0.8081,-2.5563 1.8228,-3.4332 1.0147,-0.8768 2.3206,-1.3426 3.6612,-1.3058 1.396,-0.0317 2.7634,0.3985 3.8899,1.2235 1.1265,0.8251 1.9491,1.999 2.3401,3.3395 -1.0339,0.4279 -1.9359,1.1223 -2.614,2.0124 -0.6781,0.8901 -1.1081,1.9441 -1.246,3.0546 -0.176,0.79 0.087,1.404 0.701,1.492 h 0.264 c 0.614,0 0.877,-0.79 0.965,-1.404 0.2042,-1.0831 0.7197,-2.0833 1.4834,-2.8781 0.7637,-0.7947 1.7425,-1.3497 2.8166,-1.5969 h 0.789 c 0.7399,-0.0496 1.4819,0.0577 2.1774,0.3149 0.6955,0.2571 1.3289,0.6582 1.8586,1.1771 0.4383,0.4845 0.7545,1.0666 0.9224,1.698 0.1678,0.6314 0.1825,1.2938 0.0426,1.932 z"
       fill="#2a2a2a"
       id="path6" />
    <path
       d="m 37.7363,26.26 c -0.439,4.124 -4.826,4.475 -6.142,4.475 h -17.285 c -1.667,0 -5.17697,-1.404 -5.48397,-4.036 C 8.75935,26.07 8.82262,25.4343 9.01126,24.8307 9.19991,24.2271 9.50994,23.6684 9.92233,23.189 10.3781,22.6464 10.9403,22.203 11.574,21.886 c 0.6338,-0.317 1.3258,-0.5008 2.0333,-0.54 h 0.9 c 0.6452,-0.0258 1.2862,0.114 1.862,0.406 0.5759,0.2919 1.0675,0.7264 1.428,1.262 0,0 0.175,0.175 0.175,0.263 0.181,0.37 0.554,0.607 0.965,0.614 0.1488,0.0124 0.2975,-0.0236 0.4241,-0.1027 0.1265,-0.0792 0.224,-0.1971 0.2779,-0.3363 0.0763,-0.2645 0.0756,-0.5452 -0.002,-0.8092 -0.0776,-0.2641 -0.2288,-0.5006 -0.436,-0.6818 -0.44,-0.44 -0.702,-0.615 -0.878,-0.79 -0.175,-0.176 -0.35,-0.263 -0.439,-0.526 0.158,-1.3318 0.8082,-2.5563 1.8229,-3.4332 1.0147,-0.8768 2.3206,-1.3426 3.6611,-1.3058 1.396,-0.0317 2.7634,0.3985 3.8899,1.2235 1.1265,0.8251 1.9491,1.999 2.3401,3.3395 -1.0339,0.4279 -1.9359,1.1223 -2.614,2.0124 -0.6781,0.8901 -1.108,1.9441 -1.246,3.0546 -0.176,0.79 0.087,1.404 0.701,1.492 h 0.264 c 0.614,0 0.877,-0.79 0.965,-1.404 0.2043,-1.0832 0.7197,-2.0833 1.4834,-2.8781 0.7637,-0.7947 1.7425,-1.3497 2.8166,-1.5969 h 0.789 c 0.7399,-0.0496 1.4819,0.0577 2.1774,0.3149 0.6955,0.2571 1.3289,0.6582 1.8586,1.1771 0.432,0.4858 0.7427,1.067 0.9067,1.6961 0.1639,0.6291 0.1763,1.2881 0.0363,1.9229 z"
       fill="#ffffff"
       id="path8" />
    <path
       d="m 7.15401,41.209 v -5.396 h 1.974 c 0.496,-0.01 0.99099,0.052 1.46999,0.186 0.412,0.107 0.79,0.318 1.096,0.615 0.225,0.227 0.397,0.5 0.505,0.8 0.2344,0.7125 0.2344,1.4814 0,2.194 -0.1115,0.2956 -0.2835,0.5647 -0.505,0.79 -0.3062,0.2963 -0.6843,0.5079 -1.097,0.614 -0.4775,0.1382 -0.97293,0.2046 -1.46999,0.197 h -1.972 z m 1.93,-1.25 c 0.268,0.003 0.536,-0.019 0.8,-0.066 0.20699,-0.035 0.39999,-0.126 0.55999,-0.263 0.13,-0.116 0.229,-0.263 0.285,-0.428 0.1489,-0.4487 0.1489,-0.9334 0,-1.382 -0.0582,-0.1672 -0.156,-0.3178 -0.285,-0.439 -0.1592,-0.1371 -0.3528,-0.2281 -0.55999,-0.263 -0.26396,-0.0474 -0.53184,-0.0695 -0.8,-0.066 h -0.484 v 2.907 h 0.483 z m 5.29699,1.25 h -1.447 v -5.396 h 2.358 c 0.369,-0.01 0.738,0.032 1.096,0.12 0.277,0.062 0.531,0.198 0.735,0.395 0.154,0.149 0.274,0.328 0.351,0.527 0.08,0.233 0.122,0.477 0.12,0.724 0.01,0.354 -0.08,0.704 -0.262,1.009 -0.16,0.268 -0.377,0.496 -0.637,0.669 l 1.273,1.952 h -1.47 c -0.0467,0.0138 -0.0963,0.0138 -0.143,0 -0.0406,-0.0288 -0.0741,-0.0664 -0.098,-0.11 l -0.823,-1.404 c 0,-0.076 -0.077,-0.12 -0.11,-0.131 -0.032,-0.011 -0.076,0 -0.153,0 h -0.79 z m 1.393,-2.852 c 0.0579,0.0136 0.1181,0.0136 0.176,0 0.0481,-0.0268 0.0892,-0.0645 0.12,-0.11 0.0478,-0.085 0.0812,-0.1772 0.099,-0.273 v -0.286 c 0.0167,-0.0906 0.0167,-0.1835 0,-0.274 -0.0205,-0.0768 -0.0581,-0.1479 -0.11,-0.208 -0.0761,-0.0615 -0.1666,-0.1028 -0.263,-0.12 -0.1423,-0.0136 -0.2856,-0.0136 -0.428,0 h -0.932 v 1.337 z m 4.157,2.852 h -1.448 v -5.396 h 1.448 z m 2.259,-2.983 0.307,-0.362 c 0.1,-0.12 0.209,-0.241 0.308,-0.34 l 0.274,-0.307 0.22,-0.209 h -2.71 v -1.195 h 4.606 v 0.812 c 0.0067,0.0618 0.0067,0.1242 0,0.186 -0.036,0.06 -0.076,0.12 -0.12,0.175 l -1.503,1.8 -0.296,0.34 -0.296,0.34 -0.274,0.306 -0.22,0.242 h 2.764 v 1.195 h -4.683 v -0.79 c -0.0135,-0.0576 -0.0135,-0.1175 0,-0.175 0.0271,-0.0675 0.0642,-0.1306 0.11,-0.187 z m 5.122,0 0.296,-0.362 0.307,-0.34 0.286,-0.307 0.208,-0.209 h -2.698 v -1.195 h 4.606 v 0.812 c 0.0123,0.0614 0.0123,0.1246 0,0.186 -0.0324,0.0632 -0.0727,0.122 -0.12,0.175 l -1.503,1.8 -0.285,0.34 -0.296,0.34 -0.274,0.306 -0.22,0.242 h 2.764 v 1.195 h -4.738 v -0.79 c -0.0074,-0.0581 -0.0074,-0.1169 0,-0.175 l 0.12,-0.187 z m 3.729,-2.413 h 1.448 v 4.2 h 2.643 v 1.196 h -4.09 z m 8.862,0 v 1.195 h -2.742 v 0.889 h 2.5 v 1.162 h -2.489 v 0.955 h 2.819 v 1.195 h -4.266 v -5.396 z"
       fill="#0f79be"
       id="path10" />
  </g>
  <defs
     id="defs24">
    <filter
       id="filter0_f"
       x="0"
       y="28"
       width="48"
       height="21"
       filterUnits="userSpaceOnUse"
       color-interpolation-filters="sRGB">
      <feFlood
         flood-opacity="0"
         result="BackgroundImageFix"
         id="feFlood14" />
      <feBlend
         mode="normal"
         in="SourceGraphic"
         in2="BackgroundImageFix"
         result="shape"
         id="feBlend16" />
      <feGaussianBlur
         stdDeviation="3"
         result="effect1_foregroundBlur"
         id="feGaussianBlur18" />
    </filter>
    <clipPath
       id="clip0">
      <rect
         width="48"
         height="48"
         fill="#ffffff"
         id="rect21"
         x="0"
         y="0" />
    </clipPath>
  </defs>
</svg>
