<?xml version="1.0" encoding="UTF-8" standalone="no"?>
<svg
   xmlns:dc="http://purl.org/dc/elements/1.1/"
   xmlns:cc="http://creativecommons.org/ns#"
   xmlns:rdf="http://www.w3.org/1999/02/22-rdf-syntax-ns#"
   xmlns:svg="http://www.w3.org/2000/svg"
   xmlns="http://www.w3.org/2000/svg"
   xmlns:sodipodi="http://sodipodi.sourceforge.net/DTD/sodipodi-0.dtd"
   xmlns:inkscape="http://www.inkscape.org/namespaces/inkscape"
   width="35.613049"
   height="31.670862"
   viewBox="0 0 35.613049 31.670862"
   fill="none"
   version="1.1"
   id="svg14"
   sodipodi:docname="13.svg"
   inkscape:version="1.0.1 (1.0.1+r74)">
  <metadata
     id="metadata20">
    <rdf:RDF>
      <cc:Work
         rdf:about="">
        <dc:format>image/svg+xml</dc:format>
        <dc:type
           rdf:resource="http://purl.org/dc/dcmitype/StillImage" />
      </cc:Work>
    </rdf:RDF>
  </metadata>
  <defs
     id="defs18" />
  <sodipodi:namedview
     pagecolor="#ffffff"
     bordercolor="#666666"
     borderopacity="1"
     objecttolerance="10"
     gridtolerance="10"
     guidetolerance="10"
     inkscape:pageopacity="0"
     inkscape:pageshadow="2"
     inkscape:window-width="748"
     inkscape:window-height="480"
     id="namedview16"
     showgrid="false"
     inkscape:zoom="11.916667"
     inkscape:cx="20.300002"
     inkscape:cy="12.996682"
     inkscape:window-x="0"
     inkscape:window-y="0"
     inkscape:window-maximized="0"
     inkscape:current-layer="svg14" />
  <path
     d="m 30.289002,8.8146815 c -0.9342,-0.0784 -1.8749,-0.0195 -2.792,0.175 -0.5096,-1.674 -1.5534,-3.135 -2.972,-4.1595 -1.4186,-1.0245 -3.1337,-1.5561 -4.883,-1.5135 -3.927,0 -6.982,2.444 -7.418,5.585 -0.3062,-0.078 -0.6227,-0.1074 -0.938,-0.087 h -1.091 c -3.8400002,0.262 -6.8950002,3.0550005 -6.8950002,6.4580005 0,3.579 3.273,6.459 7.4180002,6.459 h 16.691 c 4.015,0 8.204,-1.571 8.204,-7.07 0.0059,-1.4642 -0.5379,-2.8773 -1.5237,-3.96 -0.9858,-1.0827005 -2.3419,-1.7560005 -3.8003,-1.8870005 z m 3.579,6.6330005 c -0.437,4.102 -4.8,4.45 -6.11,4.45 h -17.192 c -1.6580002,0 -5.1500002,-1.396 -5.4550002,-4.014 -0.06549,-0.6254 -0.0025,-1.2575 0.18511,-1.8577 0.18761,-0.6001 0.49588,-1.1556 0.90589,-1.6323 0.4534,-0.5397 1.0127,-0.9808 1.6432,-1.2961 0.6305,-0.3153 1.3189,-0.498 2.0228,-0.5369 h 0.8940002 c 0.6417,-0.0258 1.2793,0.113 1.8522,0.4032 0.5729,0.2902 1.062,0.7222 1.4208,1.2548 0,0 0.174,0.174 0.174,0.262 0.18,0.367 0.551,0.603 0.96,0.61 0.148,0.0127 0.2961,-0.023 0.4221,-0.1016 0.126,-0.0786 0.2232,-0.1959 0.2769,-0.3344 0.0757,-0.2632 0.0748,-0.5424 -0.0026,-0.8051 -0.0774,-0.2627 -0.2281,-0.4978 -0.4344,-0.6779 -0.436,-0.437 -0.698,-0.611 -0.873,-0.786 -0.174,-0.174 -0.349,-0.262 -0.436,-0.5240005 0.1574,-1.3244 0.8043,-2.5421 1.8137,-3.4139 1.0093,-0.8719 2.3081,-1.3349 3.6413,-1.2981 1.3884,-0.0315 2.7483,0.3962 3.8687,1.2167 1.1203,0.8206 1.9385,1.9881 2.3273,3.3213 -1.0285,0.4256005 -1.9258,1.1163005 -2.6003,2.0016005 -0.6746,0.8854 -1.1024,1.9338 -1.2397,3.0384 -0.175,0.785 0.087,1.396 0.698,1.484 h 0.262 c 0.61,0 0.873,-0.786 0.96,-1.397 0.2033,-1.077 0.716,-2.0714 1.4753,-2.8617 0.7594,-0.7903 1.7327,-1.3422 2.8007,-1.5883 h 0.786 c 1.488,-0.1 2.949,0.44 4.014,1.483 0.4359,0.4818 0.7504,1.0608 0.9174,1.6887 0.167,0.6279 0.1816,1.2866 0.0426,1.9213 z"
     fill="#2a2a2a"
     id="path2" />
  <path
     d="m 33.886302,15.458682 c -0.437,4.102 -4.8,4.45 -6.11,4.45 h -17.192 c -1.6580002,0 -5.1500002,-1.396 -5.4550002,-4.014 -0.06549,-0.6253 -0.0025,-1.2575 0.18511,-1.8576 0.18761,-0.6002 0.49588,-1.1557 0.90589,-1.6324 0.4534,-0.5397 1.0127,-0.9808 1.6432,-1.2961 0.6305,-0.3152 1.3189,-0.498 2.0228,-0.5369 h 0.8940002 c 0.6417,-0.0258 1.2793,0.113 1.8522,0.4032 0.5729,0.2902 1.062,0.7222 1.4208,1.2548 0,0 0.174,0.174 0.174,0.262 0.18,0.367 0.551,0.603 0.96,0.61 0.148,0.0127 0.2961,-0.023 0.4221,-0.1016 0.126,-0.0786 0.2232,-0.1959 0.2769,-0.3344 0.0759,-0.2633 0.0751,-0.5428 -0.0023,-0.8056 -0.0774,-0.2629 -0.2282,-0.4982 -0.4347,-0.6784 -0.436,-0.436 -0.698,-0.61 -0.873,-0.785 -0.174,-0.175 -0.349,-0.262 -0.436,-0.5240005 0.1574,-1.3244 0.8043,-2.5421 1.8137,-3.4139 1.0093,-0.8719 2.3081,-1.3349 3.6413,-1.2981 1.3884,-0.0315 2.7483,0.3962 3.8687,1.2168 1.1204,0.8205 1.9385,1.988 2.3273,3.3212 -1.0285,0.4256005 -1.9258,1.1163005 -2.6003,2.0017005 -0.6746,0.8853 -1.1024,1.9338 -1.2397,3.0383 -0.175,0.785 0.087,1.396 0.698,1.483 h 0.262 c 0.61,0 0.873,-0.785 0.96,-1.396 0.2033,-1.077 0.716,-2.0714 1.4754,-2.8617 0.7593,-0.7903 1.7326,-1.3422 2.8006,-1.5883 h 0.786 c 1.488,-0.1 2.949,0.439 4.014,1.483 0.43,0.4831 0.7393,1.0613 0.9025,1.6871 0.1633,0.6258 0.1758,1.2814 0.0365,1.9129 z"
     fill="#ffffff"
     id="path4" />
  <path
     d="m 4.0383018,13.003682 c -1.01305,-0.8536 -1.74322,-1.9945 -2.094,-3.2720005 1.33926,-0.0614 2.60393,-0.6342 3.53342,-1.6003 0.92948,-0.9662 1.45298,-2.2521 1.46258,-3.5927 -0.0221,-0.8773 -0.23,-1.7399 -0.61,-2.531 0.5654,-0.1738 1.1535,-0.2621 1.745,-0.262 0.9512,0.0036 1.8899,0.2165 2.7496002,0.6237 0.8596,0.4072 1.619,0.9986 2.2244,1.7323 0.457,0.576 0.73,1.275 0.786,2.008 l 1.57,-1.091 c -0.1338,-0.7431 -0.4654,-1.4364 -0.96,-2.007 -0.774,-0.9517 -1.7527,-1.7167 -2.8631,-2.23799998 -1.1105,-0.5213 -2.3242002,-0.7855 -3.5509002,-0.77299999881 -1.662,-0.0222000012 -3.28582,0.49849999881 -4.625,1.48299997881 0.66437,0.3882 1.1829,0.9839 1.47592,1.6954 0.29301,0.7115 0.3443,1.4996 0.14599,2.2431 -0.19831,0.7435 -0.63526,1.4013 -1.2437,1.8724 -0.60845,0.471 -1.35474,0.7293 -2.12421,0.7351 -0.57933,-0.0133 -1.14735999,-0.1631 -1.65799999,-0.437 v 0.524 c -0.03167,1.2897 0.26391,2.5663005 0.85916,3.7109005 0.59525999,1.1445 1.47076999,2.1195 2.54483999,2.8341 0.196,0.088 0.72,-1.658 0.632,-1.658 z"
     fill="#2a2a2a"
     id="path6" />
  <path
     d="m 3.8753018,12.840682 c 0.60636,-1.1713 1.51237,-2.161 2.6257,-2.8682005 1.1134,-0.7073 2.3943,-1.1067 3.7123002,-1.1578 h 1.09 c 0.316,-0.02 0.633,0.01 0.939,0.087 0.174,-1.19 0.71,-2.3 1.538,-3.174 -0.1104,-0.5924 -0.3607,-1.1498 -0.73,-1.626 -0.6055,-0.7338 -1.3651,-1.3253 -2.2249,-1.7325 -0.8598002,-0.4072 -1.7987002,-0.6201 -2.7501002,-0.6235 -0.592,0 -1.18,0.088 -1.746,0.262 0.38,0.79 0.589,1.653 0.611,2.53 -0.0093,1.3408 -0.5327,2.627 -1.46223,3.5933 -0.92952,0.9664 -2.19434,1.5393 -3.53377,1.6007 0.33465,1.1988005 1.00415,2.2773005 1.93,3.1090005 z"
     fill="#ffffff"
     id="path8" />
  <path
     d="m 11.378002,29.756082 c 0.1164,1.4039 1.7412,2.2353 3.0802,1.7978 3.4205,-1.1177 1.6564,-6.0572 1.6564,-6.0572 0,0 -4.9796,1.3279 -4.7366,4.2594 z"
     fill="#0f79be"
     id="path10" />
  <path
     d="m 18.378002,28.756082 c 0.1164,1.4039 1.7412,2.2353 3.0802,1.7978 3.4205,-1.1177 1.6564,-6.0572 1.6564,-6.0572 0,0 -4.9796,1.3279 -4.7366,4.2594 z"
     fill="#0f79be"
     id="path12" />
</svg>
