<?xml version="1.0" encoding="UTF-8" standalone="no"?>
<svg
   xmlns:dc="http://purl.org/dc/elements/1.1/"
   xmlns:cc="http://creativecommons.org/ns#"
   xmlns:rdf="http://www.w3.org/1999/02/22-rdf-syntax-ns#"
   xmlns:svg="http://www.w3.org/2000/svg"
   xmlns="http://www.w3.org/2000/svg"
   xmlns:sodipodi="http://sodipodi.sourceforge.net/DTD/sodipodi-0.dtd"
   xmlns:inkscape="http://www.inkscape.org/namespaces/inkscape"
   width="41"
   height="37.591782"
   viewBox="0 0 41 37.591782"
   fill="none"
   version="1.1"
   id="svg25"
   sodipodi:docname="17.svg"
   inkscape:version="1.0.1 (1.0.1+r74)">
  <metadata
     id="metadata29">
    <rdf:RDF>
      <cc:Work
         rdf:about="">
        <dc:format>image/svg+xml</dc:format>
        <dc:type
           rdf:resource="http://purl.org/dc/dcmitype/StillImage" />
      </cc:Work>
    </rdf:RDF>
  </metadata>
  <sodipodi:namedview
     pagecolor="#ffffff"
     bordercolor="#666666"
     borderopacity="1"
     objecttolerance="10"
     gridtolerance="10"
     guidetolerance="10"
     inkscape:pageopacity="0"
     inkscape:pageshadow="2"
     inkscape:window-width="748"
     inkscape:window-height="480"
     id="namedview27"
     showgrid="false"
     inkscape:zoom="11.916667"
     inkscape:cx="17"
     inkscape:cy="17.9176"
     inkscape:window-x="0"
     inkscape:window-y="0"
     inkscape:window-maximized="0"
     inkscape:current-layer="svg25" />
  <g
     clip-path="url(#clip0)"
     id="g18"
     transform="translate(-7,-6.0824)">
    <path
       d="m 38.382,26.558 c -0.259,0 -0.345,-1.636 -0.345,-1.636 0.7012,-0.5693 1.2608,-1.2937 1.6345,-2.116 0.3738,-0.8224 0.5516,-1.7202 0.5195,-2.623 -0.0026,-1.6636 -0.6631,-3.2586 -1.8374,-4.437 -1.1743,-1.1784 -2.767,-1.8445 -4.4306,-1.853 -0.9481,0.0018 -1.8834,0.22 -2.7343,0.6382 -0.8509,0.4182 -1.5951,1.0253 -2.1757,1.7748 -0.26,0.345 -0.604,0.948 -0.948,0.69 -0.173,-0.173 -0.776,-0.26 -0.862,-0.69 -0.086,-0.43 0.43,-0.861 0.517,-1.077 0.7489,-0.9492 1.7024,-1.7172 2.7894,-2.2467 1.087,-0.5295 2.2795,-0.8068 3.4886,-0.8113 2.0852,-0.0058 4.0878,0.8147 5.5693,2.282 1.4816,1.4673 2.3214,3.4619 2.3357,5.547 -0.009,1.1847 -0.2758,2.3531 -0.7818,3.4243 -0.5059,1.0711 -1.239,2.0193 -2.1482,2.7787 -0.0697,0.0958 -0.1579,0.1766 -0.2594,0.2376 -0.1016,0.061 -0.2143,0.1009 -0.3316,0.1174 z M 33.977,10.62 c -0.2286,0 -0.4479,-0.0908 -0.6095,-0.2524 C 33.2058,10.2059 33.115,9.98666 33.115,9.75804 v -2.843 c 0.0076,-0.2234 0.1017,-0.43511 0.2624,-0.59046 0.1608,-0.15535 0.3756,-0.24218 0.5991,-0.24218 0.2235,0 0.4383,0.08683 0.5991,0.24218 0.1607,0.15535 0.2548,0.36706 0.2624,0.59046 v 2.843 c -0.0252,0.21977 -0.1239,0.42456 -0.2803,0.58106 -0.1563,0.1565 -0.361,0.2555 -0.5807,0.2809 z M 47.17,21.077 H 44.326 C 44.0976,21.0768 43.8786,20.9858 43.7171,20.8242 43.5557,20.6626 43.465,20.4435 43.465,20.215 43.4592,20.1076 43.4747,20 43.5105,19.8986 c 0.0358,-0.1015 0.0913,-0.1949 0.1633,-0.2749 0.072,-0.08 0.1591,-0.145 0.2562,-0.1912 0.0972,-0.0463 0.2025,-0.073 0.31,-0.0785 h 2.93 c 0.475,0 0.86,0.386 0.86,0.861 0.0073,0.1061 -0.0063,0.2126 -0.0402,0.3134 -0.0339,0.1008 -0.0874,0.1939 -0.1574,0.274 -0.0699,0.08 -0.155,0.1455 -0.2503,0.1927 -0.0953,0.0471 -0.199,0.075 -0.3051,0.0819 H 47.169 Z M 41.31,13.635 C 41.0832,13.6316 40.8669,13.5389 40.708,13.377 40.6309,13.3 40.5697,13.2085 40.528,13.1077 40.4863,13.007 40.4648,12.8991 40.4648,12.79 c 0,-0.109 0.0215,-0.2169 0.0632,-0.3177 0.0417,-0.1007 0.1029,-0.1922 0.18,-0.2693 l 1.981,-1.981 c 0.0622,-0.0933 0.1421,-0.1735 0.2353,-0.236 0.0932,-0.06247 0.1978,-0.10597 0.3078,-0.12803 0.11,-0.02205 0.2232,-0.02222 0.3333,-5.1e-4 0.11,0.02172 0.2147,0.0649 0.3081,0.12708 0.0934,0.06216 0.1736,0.14216 0.236,0.23536 0.0625,0.0931 0.106,0.1977 0.1281,0.3077 0.022,0.11 0.0222,0.2233 5e-4,0.3333 -0.0217,0.1101 -0.0649,0.2148 -0.1271,0.3081 -0.055,0.0873 -0.1288,0.1611 -0.216,0.216 l -1.981,1.981 c -0.1604,0.162 -0.3754,0.2583 -0.603,0.27 z m -14.732,0 c -0.2271,-0.0031 -0.4438,-0.0959 -0.603,-0.258 l -1.981,-1.992 c -0.1557,-0.1623 -0.2426,-0.3785 -0.2426,-0.6035 0,-0.2249 0.0869,-0.4411 0.2426,-0.6035 0.079,-0.0795 0.1729,-0.1426 0.2764,-0.18565 0.1035,-0.04306 0.2145,-0.06523 0.3266,-0.06523 0.1121,0 0.2231,0.02217 0.3266,0.06523 C 25.027,10.0354 25.121,10.0985 25.2,10.178 l 1.982,1.982 c 0.1513,0.1515 0.2363,0.3569 0.2363,0.571 0,0.2142 -0.085,0.4195 -0.2363,0.571 -0.0699,0.0967 -0.1603,0.1767 -0.2647,0.2342 -0.1044,0.0576 -0.2203,0.0913 -0.3393,0.0988 z M 43.292,30.35 c -0.2274,-0.0037 -0.4442,-0.0971 -0.603,-0.26 l -1.981,-1.98 c -0.1362,-0.1794 -0.1968,-0.405 -0.1688,-0.6285 0.028,-0.2236 0.1425,-0.4272 0.3188,-0.5675 0.1511,-0.1261 0.3417,-0.1953 0.5385,-0.1953 0.1968,0 0.3874,0.0692 0.5385,0.1953 l 1.982,1.981 c 0.1513,0.1515 0.2363,0.3569 0.2363,0.571 0,0.2142 -0.085,0.4195 -0.2363,0.571 -0.0731,0.0967 -0.1675,0.1752 -0.2759,0.2293 -0.1085,0.0541 -0.2279,0.0824 -0.3491,0.0827 z"
       fill="#2a2a2a"
       id="path2" />
    <path
       d="m 33.643,20 c -0.9225,-0.0777 -1.8514,-0.0198 -2.757,0.172 -0.5031,-1.6522 -1.5335,-3.0942 -2.9335,-4.1054 -1.4001,-1.0113 -3.0929,-1.5363 -4.8195,-1.4946 -3.877,0 -6.893,2.413 -7.323,5.514 C 15.5074,20.0089 15.1946,19.9798 14.883,20 H 13.806 C 10.016,20.258 7,23.015 7,26.375 c 0,3.533 3.231,6.376 7.323,6.376 H 30.8 c 3.963,0 8.099,-1.551 8.099,-6.979 0.0058,-1.4454 -0.531,-2.8405 -1.5042,-3.9093 C 36.4215,20.794 35.0827,20.1292 33.643,20 Z m 3.533,6.548 c -0.431,4.049 -4.739,4.394 -6.031,4.394 H 14.173 c -1.637,0 -5.083,-1.379 -5.385,-3.964 -0.06481,-0.6174 -0.0027,-1.2416 0.1825,-1.8342 0.18521,-0.5926 0.48961,-1.1411 0.8945,-1.6118 0.4476,-0.5326 0.9995,-0.9679 1.6217,-1.279 0.6223,-0.3111 1.3017,-0.4915 1.9963,-0.53 h 0.883 c 0.6335,-0.0255 1.263,0.1116 1.8285,0.3981 0.5656,0.2865 1.0484,0.7131 1.4025,1.2389 0,0 0.173,0.172 0.173,0.258 0.177,0.363 0.543,0.596 0.947,0.604 0.3,0.025 0.58,-0.15 0.69,-0.431 0.0749,-0.2599 0.0742,-0.5357 -0.0022,-0.7952 -0.0763,-0.2595 -0.2251,-0.4918 -0.4288,-0.6698 -0.431,-0.43 -0.69,-0.603 -0.862,-0.775 -0.172,-0.173 -0.344,-0.259 -0.43,-0.517 0.1554,-1.3072 0.7939,-2.5092 1.79,-3.3699 0.9961,-0.8607 2.278,-1.318 3.594,-1.2821 1.3706,-0.031 2.7132,0.3912 3.8193,1.2013 1.106,0.8101 1.9137,1.9626 2.2977,3.2787 -1.0151,0.4202 -1.9007,1.102 -2.5665,1.976 -0.6658,0.8739 -1.088,1.9088 -1.2235,2.999 -0.173,0.775 0.085,1.378 0.688,1.465 h 0.259 c 0.603,0 0.861,-0.776 0.948,-1.379 0.2005,-1.0633 0.7065,-2.0452 1.4562,-2.8255 0.7496,-0.7804 1.7104,-1.3254 2.7648,-1.5685 h 0.775 c 0.7266,-0.0487 1.4554,0.0565 2.1385,0.309 0.6831,0.2525 1.3052,0.6464 1.8255,1.156 0.4302,0.4758 0.7406,1.0474 0.9053,1.6673 0.1647,0.6199 0.179,1.2702 0.0417,1.8967 z"
       fill="#2a2a2a"
       id="path4" />
    <path
       d="m 37.2129,26.558 c -0.431,4.05 -4.739,4.394 -6.031,4.394 h -16.972 c -1.637,0 -5.08301,-1.378 -5.38501,-3.963 -0.06481,-0.6174 -0.0027,-1.2416 0.1825,-1.8342 0.18521,-0.5926 0.48961,-1.1411 0.8945,-1.6118 0.44751,-0.5328 0.99941,-0.9682 1.62161,-1.2795 0.6223,-0.3113 1.3017,-0.4918 1.9964,-0.5305 h 0.883 c 0.6336,-0.0254 1.2631,0.1118 1.8287,0.3985 0.5655,0.2868 1.0483,0.7135 1.4023,1.2395 0,0 0.173,0.172 0.173,0.258 0.177,0.363 0.543,0.596 0.947,0.603 0.3,0.025 0.58,-0.15 0.69,-0.43 0.0749,-0.2599 0.0742,-0.5357 -0.0022,-0.7952 -0.0763,-0.2595 -0.2251,-0.4918 -0.4288,-0.6698 -0.431,-0.43 -0.69,-0.603 -0.862,-0.775 -0.172,-0.173 -0.344,-0.259 -0.43,-0.517 0.1552,-1.3074 0.7935,-2.5096 1.7897,-3.3705 0.9962,-0.8609 2.2782,-1.3183 3.5943,-1.2825 1.3706,-0.031 2.7132,0.3912 3.8192,1.2013 1.1061,0.8101 1.9138,1.9626 2.2978,3.2787 -1.0153,0.4203 -1.901,1.1023 -2.5668,1.9764 -0.6657,0.8741 -1.0878,1.9092 -1.2232,2.9996 -0.173,0.775 0.085,1.378 0.688,1.464 h 0.259 c 0.603,0 0.861,-0.775 0.948,-1.378 0.2005,-1.0633 0.7065,-2.0452 1.4561,-2.8255 0.7497,-0.7804 1.7104,-1.3254 2.7649,-1.5685 h 0.775 c 0.7266,-0.0487 1.4554,0.0565 2.1385,0.309 0.6831,0.2525 1.3052,0.6464 1.8255,1.156 0.86,0.967 1.205,2.289 0.926,3.553 z"
       fill="#ffffff"
       id="path6" />
    <path
       d="m 30.961,20.183 c 0.9051,-0.1953 1.834,-0.257 2.757,-0.183 1.1573,0.0942 2.2581,0.5398 3.1551,1.277 0.897,0.7372 1.5473,1.7309 1.8639,2.848 0.9176,-1.109 1.4,-2.5142 1.357,-3.953 -0.0029,-1.6634 -0.6635,-3.2582 -1.8378,-4.4364 -1.1742,-1.1781 -2.7668,-1.8441 -4.4302,-1.8526 -0.9481,0.0016 -1.8832,0.2198 -2.7342,0.6378 -0.8509,0.418 -1.5951,1.0249 -2.1758,1.7742 L 28.7,16.597 c 1.0784,0.9568 1.8626,2.2005 2.261,3.586 z"
       fill="#ef9d33"
       id="path8" />
    <path
       d="m 23.692,41.332 c -0.1759,-0.1094 -0.3072,-0.2778 -0.3702,-0.4752 -0.063,-0.1973 -0.0537,-0.4106 0.0262,-0.6018 l 2.67,-4.566 c 0.1091,-0.1827 0.2842,-0.3165 0.4891,-0.3738 0.2049,-0.0573 0.424,-0.0337 0.612,0.0659 0.1881,0.0996 0.3307,0.2676 0.3984,0.4693 0.0677,0.2017 0.0554,0.4218 -0.0345,0.6146 l -2.67,4.566 c -0.1098,0.1756 -0.2812,0.3039 -0.4806,0.3596 -0.1995,0.0557 -0.4126,0.0348 -0.5974,-0.0586 z"
       fill="#828190"
       id="path10" />
    <path
       d="m 26.385,41.3321 c -0.087,-0.086 -0.259,-0.172 -0.345,-0.344 l -2.67,-4.566 c -0.0932,-0.1847 -0.114,-0.3974 -0.0585,-0.5966 0.0555,-0.1992 0.1833,-0.3706 0.3585,-0.4804 0.1825,-0.0997 0.3963,-0.1252 0.5971,-0.0711 0.2008,0.054 0.373,0.1833 0.4809,0.3611 l 2.714,4.577 c 0.0571,0.0856 0.0964,0.1819 0.1154,0.2831 0.0191,0.1012 0.0175,0.2052 -0.0047,0.3058 -0.0221,0.1006 -0.0643,0.1956 -0.1241,0.2795 -0.0597,0.0839 -0.1358,0.1548 -0.2236,0.2086 H 27.16 c -0.247,0.099 -0.52,0.114 -0.775,0.043 z"
       fill="#828190"
       id="path12" />
    <path
       d="m 22.314,39.0061 c -0.1321,-0.0815 -0.2411,-0.1956 -0.3164,-0.3313 -0.0753,-0.1357 -0.1144,-0.2885 -0.1136,-0.4438 0,-0.2282 0.0905,-0.4472 0.2518,-0.6088 0.1612,-0.1616 0.3799,-0.2526 0.6082,-0.2532 h 5.385 c 0.2234,0.0077 0.4351,0.1018 0.5905,0.2625 0.1553,0.1607 0.2421,0.3755 0.2421,0.599 0,0.2236 -0.0868,0.4384 -0.2421,0.5991 -0.1554,0.1607 -0.3671,0.2548 -0.5905,0.2624 h -5.384 c -0.1488,0.0101 -0.2975,-0.0195 -0.431,-0.0859 z"
       fill="#828190"
       id="path14" />
    <path
       d="m 15.0764,41.7594 c 0.1164,1.4039 1.7412,2.2353 3.0802,1.7978 C 21.5771,42.4395 19.813,37.5 19.813,37.5 c 0,0 -4.9796,1.3279 -4.7366,4.2594 z"
       fill="#0f79be"
       id="path16" />
  </g>
  <defs
     id="defs23">
    <clipPath
       id="clip0">
      <rect
         width="48"
         height="48"
         fill="#ffffff"
         id="rect20"
         x="0"
         y="0" />
    </clipPath>
  </defs>
</svg>
