<?xml version="1.0" encoding="UTF-8" standalone="no"?>
<svg
   xmlns:dc="http://purl.org/dc/elements/1.1/"
   xmlns:cc="http://creativecommons.org/ns#"
   xmlns:rdf="http://www.w3.org/1999/02/22-rdf-syntax-ns#"
   xmlns:svg="http://www.w3.org/2000/svg"
   xmlns="http://www.w3.org/2000/svg"
   xmlns:sodipodi="http://sodipodi.sourceforge.net/DTD/sodipodi-0.dtd"
   xmlns:inkscape="http://www.inkscape.org/namespaces/inkscape"
   width="32.582047"
   height="29.620569"
   viewBox="0 0 32.582047 29.620569"
   fill="none"
   version="1.1"
   id="svg14"
   sodipodi:docname="18.svg"
   inkscape:version="1.0.1 (1.0.1+r74)">
  <metadata
     id="metadata20">
    <rdf:RDF>
      <cc:Work
         rdf:about="">
        <dc:format>image/svg+xml</dc:format>
        <dc:type
           rdf:resource="http://purl.org/dc/dcmitype/StillImage" />
      </cc:Work>
    </rdf:RDF>
  </metadata>
  <defs
     id="defs18" />
  <sodipodi:namedview
     pagecolor="#ffffff"
     bordercolor="#666666"
     borderopacity="1"
     objecttolerance="10"
     gridtolerance="10"
     guidetolerance="10"
     inkscape:pageopacity="0"
     inkscape:pageshadow="2"
     inkscape:window-width="748"
     inkscape:window-height="480"
     id="namedview16"
     showgrid="false"
     inkscape:zoom="11.916667"
     inkscape:cx="17"
     inkscape:cy="9.9463881"
     inkscape:window-x="0"
     inkscape:window-y="0"
     inkscape:window-maximized="0"
     inkscape:current-layer="svg14" />
  <path
     d="m 27.214,5.5463881 c -0.9422,-0.0794 -1.891,-0.0201 -2.816,0.176 -0.5139,-1.6878 -1.5664,-3.1609 -2.9967,-4.1938 -1.4303,-1.03299996 -3.1595,-1.56909996 -4.9233,-1.52619996 -3.96,0 -7.04,2.46399996 -7.48,5.63199996 -0.3088,-0.0788 -0.628,-0.1085 -0.946,-0.088 h -1.1 C 3.08,5.8103881 0,8.6263881 0,12.058388 c 0,3.608 3.3,6.512 7.48,6.512 h 16.83 c 4.048,0 8.272,-1.584 8.272,-7.128 0.0059,-1.4763999 -0.5423,-2.9012999 -1.5362,-3.9929999 -0.994,-1.0917 -2.3613,-1.7708 -3.8318,-1.903 z m 3.608,6.6879999 c -0.44,4.136 -4.84,4.488 -6.16,4.488 H 7.326 c -1.672,0 -5.192,-1.408 -5.5,-4.048 -0.06621,-0.6307 -0.00278,-1.2683 0.18638,-1.8737 0.18916,-0.6053 0.50007,-1.1654999 0.91362,-1.6462999 0.4572,-0.5442 1.021,-0.9889 1.6567,-1.3067 0.6356,-0.3178 1.3297,-0.5021 2.0393,-0.5413 h 0.902 c 0.647,-0.026 1.2899,0.114 1.8675,0.4066 0.5777,0.2927 1.0708,0.7283 1.4325,1.2654 0,0 0.176,0.176 0.176,0.264 0.089,0.1818 0.2265,0.3355 0.3973,0.4442 0.1708,0.1087 0.3683,0.1681 0.5707,0.1718 0.1491,0.0125 0.2983,-0.0236 0.4252,-0.1029 0.1269,-0.0794 0.2247,-0.1976 0.2788,-0.3371 0.0765,-0.2654 0.0758,-0.5471 -0.0021,-0.8121 -0.078,-0.265 -0.2299,-0.5022 -0.4379,-0.6839 -0.44,-0.44 -0.704,-0.616 -0.88,-0.792 -0.176,-0.176 -0.352,-0.264 -0.44,-0.528 0.1587,-1.3355 0.8109,-2.5634 1.8285,-3.4426 1.0176,-0.8792 2.3272,-1.3463 3.6715,-1.3094 1.4,-0.0318 2.7713,0.3995 3.9011,1.2269 1.1298,0.8274 1.9548,2.0047 2.3469,3.3491 -1.0371,0.4291 -1.9419,1.1255 -2.6221,2.0183 -0.6802,0.8927 -1.1115,1.9498999 -1.2499,3.0636999 -0.176,0.792 0.088,1.408 0.704,1.496 h 0.264 c 0.616,0 0.88,-0.792 0.968,-1.408 0.2048,-1.0862 0.7218,-2.0891999 1.4876,-2.8861999 0.7658,-0.7971 1.7473,-1.3537 2.8244,-1.6018 h 0.792 c 0.742,-0.0498 1.4862,0.0577 2.1838,0.3155 0.6976,0.2578 1.3329,0.6601 1.8642,1.1805 0.4397,0.4859 0.7569,1.0698 0.9253,1.7031999 0.1684,0.6333 0.183,1.2976 0.0427,1.9378 z"
     fill="#2a2a2a"
     id="path2" />
  <path
     d="m 30.822,12.245388 c -0.44,4.136 -4.84,4.488 -6.16,4.488 H 7.326 c -1.672,0 -5.19201,-1.408 -5.50001,-4.048 -0.0662,-0.6307 -0.00278,-1.2683 0.18638,-1.8737 0.18916,-0.6053 0.50007,-1.1654999 0.91362,-1.6462999 0.45721,-0.5442 1.02101,-0.9888 1.65671,-1.3067 0.6356,-0.3178 1.3297,-0.5021 2.0393,-0.5413 h 0.902 c 0.647,-0.026 1.2899,0.114 1.8675,0.4066 0.5776,0.2927 1.0708,0.7283 1.4325,1.2654 0,0 0.176,0.176 0.176,0.264 0.089,0.1818 0.2265,0.3355 0.3973,0.4442 0.1708,0.1087 0.3683,0.1681 0.5707,0.1718 0.1491,0.0125 0.2983,-0.0236 0.4252,-0.1029 0.1269,-0.0794 0.2247,-0.1976 0.2788,-0.3371 0.0765,-0.2654 0.0758,-0.5471 -0.0021,-0.8121 -0.078,-0.265 -0.2299,-0.5022 -0.4379,-0.6839 -0.44,-0.44 -0.704,-0.616 -0.88,-0.792 -0.176,-0.176 -0.352,-0.264 -0.44,-0.528 0.1587,-1.3355 0.8109,-2.5634 1.8285,-3.4426 1.0176,-0.8792 2.3272,-1.3463 3.6715,-1.3094 1.4,-0.0318 2.7713,0.3995 3.9011,1.2269 1.1298,0.8275 1.9548,2.0047 2.3469,3.3491 -1.0371,0.4291 -1.9419,1.1255 -2.6221,2.0183 -0.6802,0.8927 -1.1115,1.9498999 -1.2499,3.0636999 -0.176,0.792 0.088,1.408 0.704,1.496 h 0.264 c 0.616,0 0.88,-0.792 0.968,-1.408 0.2048,-1.0862 0.7218,-2.0891999 1.4876,-2.8861999 0.7658,-0.7971 1.7473,-1.3537 2.8244,-1.6018 h 0.792 c 0.742,-0.0498 1.4862,0.0577 2.1838,0.3155 0.6976,0.2578 1.3329,0.6601 1.8642,1.1805 0.88,0.988 1.23,2.3379999 0.946,3.6299999 z"
     fill="#c3c5c7"
     id="path4" />
  <path
     d="m 16.874,27.314388 c -0.1797,-0.1117 -0.3139,-0.2837 -0.3784,-0.4853 -0.0645,-0.2015 -0.0551,-0.4194 0.0264,-0.6147 l 2.728,-4.664 c 0.1099,-0.1894 0.2888,-0.3288 0.4993,-0.3891 0.2104,-0.0603 0.4361,-0.0368 0.6296,0.0657 0.1934,0.1024 0.3397,0.2758 0.4082,0.4837 0.0684,0.208 0.0537,0.4343 -0.0411,0.6317 l -2.728,4.664 c -0.1101,0.1813 -0.285,0.314 -0.4892,0.3711 -0.2042,0.0572 -0.4226,0.0347 -0.6108,-0.0631 z"
     fill="#828190"
     id="path6" />
  <path
     d="m 19.624,27.314388 c -0.088,-0.088 -0.264,-0.176 -0.352,-0.352 l -2.728,-4.664 c -0.0952,-0.1887 -0.1163,-0.4062 -0.0593,-0.6098 0.057,-0.2035 0.188,-0.3784 0.3673,-0.4902 0.0957,-0.0569 0.2019,-0.094 0.3122,-0.1093 0.1103,-0.0153 0.2225,-0.0084 0.3301,0.0203 0.1076,0.0287 0.2084,0.0786 0.2964,0.1468 0.0881,0.0681 0.1616,0.1532 0.2163,0.2502 v 0.055 l 2.717,4.609 c 0.0566,0.0901 0.0941,0.1909 0.1104,0.2961 0.0162,0.1052 0.0108,0.2126 -0.016,0.3156 -0.0268,0.103 -0.0744,0.1995 -0.1398,0.2834 -0.0654,0.084 -0.1473,0.1537 -0.2406,0.2049 h -0.066 c -0.239,0.091 -0.5,0.107 -0.748,0.044 z"
     fill="#828190"
     id="path8" />
  <path
     d="m 15.466,24.938388 c -0.1352,-0.0831 -0.2467,-0.1997 -0.3237,-0.3384 -0.0771,-0.1387 -0.1171,-0.2949 -0.1163,-0.4536 0,-0.2334 0.0927,-0.4573 0.2577,-0.6223 0.1651,-0.165 0.3889,-0.2577 0.6223,-0.2577 h 5.5 c 0.2334,0 0.4572,0.0927 0.6223,0.2577 0.165,0.165 0.2577,0.3889 0.2577,0.6223 0,0.2334 -0.0927,0.4572 -0.2577,0.6222 -0.1651,0.1651 -0.3889,0.2578 -0.6223,0.2578 h -5.5 c -0.1518,0.0092 -0.3034,-0.0212 -0.44,-0.088 z"
     fill="#828190"
     id="path10" />
  <path
     d="m 8.0764,27.705788 c 0.1164,1.4039 1.7412,2.2353 3.0802,1.7978 3.4205,-1.1177 1.6564,-6.0572 1.6564,-6.0572 0,0 -4.9796,1.3279 -4.7366,4.2594 z"
     fill="#0f79be"
     id="path12" />
</svg>
