<?xml version="1.0" encoding="UTF-8" standalone="no"?>
<svg
   xmlns:dc="http://purl.org/dc/elements/1.1/"
   xmlns:cc="http://creativecommons.org/ns#"
   xmlns:rdf="http://www.w3.org/1999/02/22-rdf-syntax-ns#"
   xmlns:svg="http://www.w3.org/2000/svg"
   xmlns="http://www.w3.org/2000/svg"
   xmlns:sodipodi="http://sodipodi.sourceforge.net/DTD/sodipodi-0.dtd"
   xmlns:inkscape="http://www.inkscape.org/namespaces/inkscape"
   width="36.871304"
   height="36.996681"
   viewBox="0 0 36.871304 36.996681"
   fill="none"
   version="1.1"
   id="svg28"
   sodipodi:docname="19.svg"
   inkscape:version="1.0.1 (1.0.1+r74)">
  <metadata
     id="metadata32">
    <rdf:RDF>
      <cc:Work
         rdf:about="">
        <dc:format>image/svg+xml</dc:format>
        <dc:type
           rdf:resource="http://purl.org/dc/dcmitype/StillImage" />
      </cc:Work>
    </rdf:RDF>
  </metadata>
  <sodipodi:namedview
     pagecolor="#ffffff"
     bordercolor="#666666"
     borderopacity="1"
     objecttolerance="10"
     gridtolerance="10"
     guidetolerance="10"
     inkscape:pageopacity="0"
     inkscape:pageshadow="2"
     inkscape:window-width="748"
     inkscape:window-height="480"
     id="namedview30"
     showgrid="false"
     inkscape:zoom="11.916667"
     inkscape:cx="20.300002"
     inkscape:cy="12.996682"
     inkscape:window-x="0"
     inkscape:window-y="0"
     inkscape:window-maximized="0"
     inkscape:current-layer="svg28" />
  <g
     clip-path="url(#clip0)"
     id="g14"
     transform="translate(-3.6999982,-11.003318)">
    <g
       filter="url(#filter0_f)"
       id="g4">
      <path
         d="m 30.0713,34 h -14 c -2.4853,0 -4.5,2.0147 -4.5,4.5 0,2.4853 2.0147,4.5 4.5,4.5 h 14 c 2.4853,0 4.5,-2.0147 4.5,-4.5 0,-2.4853 -2.0147,-4.5 -4.5,-4.5 z"
         fill="#ffffff"
         id="path2" />
    </g>
    <path
       d="m 33.989,19.818 c -0.9342,-0.0785 -1.8749,-0.0195 -2.792,0.175 -0.5096,-1.674 -1.5534,-3.135 -2.972,-4.1595 -1.4186,-1.0245 -3.1337,-1.5561 -4.883,-1.5135 -3.927,0 -6.982,2.444 -7.418,5.585 -0.3062,-0.0781 -0.6227,-0.1074 -0.938,-0.087 H 13.895 C 10.055,20.08 7,22.873 7,26.276 c 0,3.579 3.273,6.459 7.418,6.459 h 16.691 c 4.015,0 8.204,-1.571 8.204,-7.07 0.0059,-1.4642 -0.5379,-2.8774 -1.5237,-3.96 -0.9858,-1.0827 -2.3419,-1.7561 -3.8003,-1.887 z m 3.579,6.633 c -0.437,4.102 -4.8,4.45 -6.11,4.45 H 14.266 c -1.658,0 -5.15,-1.396 -5.455,-4.014 C 8.74551,26.2616 8.8085,25.6295 8.99611,25.0293 9.18372,24.4292 9.49199,23.8737 9.902,23.397 c 0.4534,-0.5398 1.0127,-0.9809 1.6432,-1.2961 0.6305,-0.3153 1.3189,-0.498 2.0228,-0.5369 h 0.894 c 0.6417,-0.0258 1.2793,0.113 1.8522,0.4032 0.5729,0.2902 1.062,0.7222 1.4208,1.2548 0,0 0.174,0.174 0.174,0.262 0.18,0.367 0.551,0.603 0.96,0.61 0.148,0.0126 0.2961,-0.023 0.4221,-0.1016 0.126,-0.0786 0.2232,-0.196 0.2769,-0.3344 0.0757,-0.2632 0.0748,-0.5425 -0.0026,-0.8051 -0.0774,-0.2627 -0.2281,-0.4979 -0.4344,-0.6779 -0.436,-0.437 -0.698,-0.611 -0.873,-0.786 -0.174,-0.174 -0.349,-0.262 -0.436,-0.524 0.1574,-1.3244 0.8043,-2.5421 1.8137,-3.414 1.0093,-0.8718 2.3081,-1.3348 3.6413,-1.298 1.3884,-0.0316 2.7483,0.3962 3.8687,1.2167 1.1203,0.8206 1.9385,1.9881 2.3273,3.3213 -1.0285,0.4256 -1.9258,1.1162 -2.6003,2.0016 -0.6746,0.8854 -1.1024,1.9338 -1.2397,3.0384 -0.175,0.785 0.087,1.396 0.698,1.484 h 0.262 c 0.61,0 0.873,-0.786 0.96,-1.397 0.2033,-1.077 0.716,-2.0715 1.4753,-2.8618 0.7594,-0.7903 1.7327,-1.3422 2.8007,-1.5882 h 0.786 c 1.488,-0.1 2.949,0.44 4.014,1.483 0.4359,0.4818 0.7504,1.0607 0.9174,1.6887 0.167,0.6279 0.1816,1.2866 0.0426,1.9213 z"
       fill="#2a2a2a"
       id="path6" />
    <path
       d="m 37.5863,26.462 c -0.437,4.102 -4.8,4.45 -6.11,4.45 h -17.192 c -1.658,0 -5.15,-1.396 -5.455,-4.014 -0.06549,-0.6254 -0.0025,-1.2575 0.18511,-1.8577 0.18761,-0.6001 0.49588,-1.1556 0.90589,-1.6323 0.4534,-0.5398 1.0127,-0.9809 1.6432,-1.2961 0.6305,-0.3153 1.3189,-0.498 2.0228,-0.5369 h 0.894 c 0.6417,-0.0258 1.2793,0.113 1.8522,0.4032 0.5729,0.2902 1.062,0.7222 1.4208,1.2548 0,0 0.174,0.174 0.174,0.262 0.18,0.367 0.551,0.603 0.96,0.61 0.148,0.0126 0.2961,-0.023 0.4221,-0.1016 0.126,-0.0786 0.2232,-0.196 0.2769,-0.3344 0.0759,-0.2633 0.0751,-0.5428 -0.0023,-0.8057 -0.0774,-0.2629 -0.2282,-0.4982 -0.4347,-0.6783 -0.436,-0.436 -0.698,-0.61 -0.873,-0.785 -0.174,-0.175 -0.349,-0.262 -0.436,-0.524 0.1574,-1.3244 0.8043,-2.5421 1.8137,-3.414 1.0093,-0.8718 2.3081,-1.3348 3.6413,-1.298 1.3884,-0.0316 2.7483,0.3962 3.8687,1.2167 1.1204,0.8206 1.9385,1.9881 2.3273,3.3213 -1.0285,0.4256 -1.9258,1.1162 -2.6003,2.0016 -0.6746,0.8854 -1.1024,1.9338 -1.2397,3.0384 -0.175,0.785 0.087,1.396 0.698,1.483 h 0.262 c 0.61,0 0.873,-0.785 0.96,-1.396 0.2033,-1.077 0.716,-2.0715 1.4754,-2.8618 0.7593,-0.7903 1.7326,-1.3422 2.8006,-1.5882 h 0.786 c 1.488,-0.1 2.949,0.439 4.014,1.483 0.43,0.4831 0.7393,1.0612 0.9025,1.687 0.1633,0.6258 0.1758,1.2814 0.0365,1.913 z"
       fill="#c3c5c7"
       id="path8" />
    <path
       d="m 17.9933,38.985 h -2.182 v 2.182 h -1.396 v -5.345 h 1.44 v 1.985 h 2.181 v -2.04 h 1.43 v 5.346 h -1.473 z m 3.828,-3.218 h 1.528 l 0.066,0.11 2.127,5.225 h -1.473 c 0,0 -0.054,0 -0.076,-0.098 l -0.284,-0.775 h -2.182 l -0.261,0.775 c 0.0069,0.0154 0.0105,0.0321 0.0105,0.049 0,0.0169 -0.0036,0.0336 -0.0105,0.049 h -1.451 l 2.007,-5.335 z m 0.765,1.364 c -0.0445,0.199 -0.0993,0.3956 -0.164,0.589 -0.076,0.25 -0.186,0.556 -0.316,0.927 l -0.142,0.458 h 1.309 l -0.164,-0.458 c -0.153,-0.392 -0.262,-0.709 -0.349,-0.949 -0.0669,-0.1853 -0.1217,-0.3747 -0.164,-0.567 z m 4.8,3.982 h -1.43 v -5.346 h 1.43 z m 0.861,-5.346 h 1.44 v 4.157 h 2.619 v 1.189 h -4.059 z M 7.7383,24.007 c -1.01305,-0.8536 -1.74322,-1.9946 -2.094,-3.272 1.33926,-0.0614 2.60393,-0.6342 3.53342,-1.6004 0.92948,-0.9661 1.45298,-2.252 1.46258,-3.5926 -0.0221,-0.8773 -0.23,-1.74 -0.61,-2.531 0.5654,-0.1738 1.1535,-0.2621 1.745,-0.262 0.9512,0.0036 1.8899,0.2165 2.7496,0.6237 0.8596,0.4071 1.619,0.9986 2.2244,1.7323 0.457,0.576 0.73,1.275 0.786,2.008 l 1.57,-1.091 c -0.1338,-0.7432 -0.4654,-1.4365 -0.96,-2.007 -0.774,-0.9518 -1.7527,-1.7167 -2.8631,-2.238 -1.1105,-0.5213 -2.3242,-0.7855 -3.5509,-0.773 -1.662,-0.0222 -3.28582,0.4985 -4.625,1.483 0.66437,0.3882 1.1829,0.9838 1.47592,1.6954 0.29301,0.7115 0.3443,1.4995 0.14599,2.243 C 8.5299,17.1689 8.09295,17.8268 7.48451,18.2978 6.87606,18.7689 6.12977,19.0272 5.3603,19.033 4.78097,19.0196 4.21294,18.8699 3.7023,18.596 v 0.524 c -0.03167,1.2896 0.26391,2.5663 0.85916,3.7108 0.59526,1.1445 1.47077,2.1196 2.54484,2.8342 0.196,0.088 0.72,-1.658 0.632,-1.658 z"
       fill="#2a2a2a"
       id="path10" />
    <path
       d="m 7.5753,23.844 c 0.60636,-1.1714 1.51236,-2.1611 2.6257,-2.8683 1.1134,-0.7072 2.3943,-1.1067 3.7123,-1.1577 h 1.09 c 0.316,-0.02 0.633,0.01 0.939,0.087 0.174,-1.19 0.71,-2.3 1.538,-3.174 -0.1104,-0.5924 -0.3607,-1.1499 -0.73,-1.626 -0.6057,-0.7338 -1.3655,-1.3252 -2.2255,-1.7322 -0.86,-0.407 -1.7991,-0.6197 -2.7505,-0.6228 -0.592,0 -1.18,0.088 -1.746,0.262 0.38,0.79 0.589,1.653 0.611,2.53 -0.0094,1.3408 -0.5327,2.6269 -1.46224,3.5933 -0.92951,0.9663 -2.19434,1.5393 -3.53376,1.6007 0.33464,1.1987 1.00415,2.2772 1.93,3.109 z"
       fill="#ffffff"
       id="path12" />
  </g>
  <defs
     id="defs26">
    <filter
       id="filter0_f"
       x="5.5713"
       y="28"
       width="35"
       height="21"
       filterUnits="userSpaceOnUse"
       color-interpolation-filters="sRGB">
      <feFlood
         flood-opacity="0"
         result="BackgroundImageFix"
         id="feFlood16" />
      <feBlend
         mode="normal"
         in="SourceGraphic"
         in2="BackgroundImageFix"
         result="shape"
         id="feBlend18" />
      <feGaussianBlur
         stdDeviation="3"
         result="effect1_foregroundBlur"
         id="feGaussianBlur20" />
    </filter>
    <clipPath
       id="clip0">
      <rect
         width="48"
         height="48"
         fill="#ffffff"
         id="rect23"
         x="0"
         y="0" />
    </clipPath>
  </defs>
</svg>
