<?xml version="1.0" encoding="UTF-8" standalone="no"?>
<svg
   xmlns:dc="http://purl.org/dc/elements/1.1/"
   xmlns:cc="http://creativecommons.org/ns#"
   xmlns:rdf="http://www.w3.org/1999/02/22-rdf-syntax-ns#"
   xmlns:svg="http://www.w3.org/2000/svg"
   xmlns="http://www.w3.org/2000/svg"
   xmlns:sodipodi="http://sodipodi.sourceforge.net/DTD/sodipodi-0.dtd"
   xmlns:inkscape="http://www.inkscape.org/namespaces/inkscape"
   width="43.031914"
   height="41.917599"
   viewBox="0 0 43.031914 41.917599"
   fill="none"
   version="1.1"
   id="svg28"
   sodipodi:docname="20.svg"
   inkscape:version="1.0.1 (1.0.1+r74)">
  <metadata
     id="metadata32">
    <rdf:RDF>
      <cc:Work
         rdf:about="">
        <dc:format>image/svg+xml</dc:format>
        <dc:type
           rdf:resource="http://purl.org/dc/dcmitype/StillImage" />
      </cc:Work>
    </rdf:RDF>
  </metadata>
  <sodipodi:namedview
     pagecolor="#ffffff"
     bordercolor="#666666"
     borderopacity="1"
     objecttolerance="10"
     gridtolerance="10"
     guidetolerance="10"
     inkscape:pageopacity="0"
     inkscape:pageshadow="2"
     inkscape:window-width="748"
     inkscape:window-height="480"
     id="namedview30"
     showgrid="false"
     inkscape:zoom="11.916667"
     inkscape:cx="19.172"
     inkscape:cy="17.9176"
     inkscape:window-x="0"
     inkscape:window-y="0"
     inkscape:window-maximized="0"
     inkscape:current-layer="svg28" />
  <g
     clip-path="url(#clip0)"
     id="g14"
     transform="translate(-4.8280001,-6.0824)">
    <g
       filter="url(#filter0_f)"
       id="g4">
      <path
         d="m 29.328,34 h -14 c -2.4853,0 -4.5,2.0148 -4.5,4.5 0,2.4853 2.0147,4.5 4.5,4.5 h 14 c 2.4853,0 4.5,-2.0147 4.5,-4.5 0,-2.4852 -2.0147,-4.5 -4.5,-4.5 z"
         fill="#ffffff"
         id="path2" />
    </g>
    <path
       d="m 33.643,20 c -0.9225,-0.0777 -1.8514,-0.0198 -2.757,0.172 -0.5031,-1.6522 -1.5335,-3.0942 -2.9335,-4.1054 -1.4001,-1.0113 -3.0929,-1.5362 -4.8195,-1.4946 -3.877,0 -6.893,2.413 -7.323,5.514 C 15.5074,20.0089 15.1946,19.9798 14.883,20 H 13.806 C 10.016,20.258 7,23.015 7,26.375 c 0,3.533 3.231,6.376 7.323,6.376 H 30.8 c 3.963,0 8.099,-1.551 8.099,-6.979 0.0058,-1.4454 -0.531,-2.8405 -1.5042,-3.9093 C 36.4215,20.794 35.0827,20.1293 33.643,20 Z m 3.533,6.548 c -0.431,4.049 -4.739,4.394 -6.031,4.394 H 14.173 c -1.637,0 -5.083,-1.379 -5.385,-3.964 -0.06481,-0.6174 -0.0027,-1.2416 0.1825,-1.8342 0.18521,-0.5926 0.48961,-1.1411 0.8945,-1.6118 0.4476,-0.5326 0.9995,-0.9678 1.6217,-1.279 0.6223,-0.3111 1.3017,-0.4915 1.9963,-0.53 h 0.883 c 0.6335,-0.0255 1.263,0.1116 1.8285,0.3981 0.5656,0.2865 1.0484,0.7131 1.4025,1.2389 0,0 0.173,0.172 0.173,0.258 0.177,0.363 0.543,0.596 0.947,0.604 0.3,0.025 0.58,-0.15 0.69,-0.431 0.0749,-0.2599 0.0742,-0.5357 -0.0022,-0.7952 -0.0763,-0.2595 -0.2251,-0.4918 -0.4288,-0.6698 -0.431,-0.43 -0.69,-0.603 -0.862,-0.775 -0.172,-0.173 -0.344,-0.259 -0.43,-0.517 0.1554,-1.3072 0.7939,-2.5092 1.79,-3.3699 0.9961,-0.8607 2.278,-1.318 3.594,-1.2821 1.3706,-0.031 2.7132,0.3912 3.8193,1.2013 1.106,0.8101 1.9137,1.9626 2.2977,3.2787 -1.0151,0.4202 -1.9007,1.102 -2.5665,1.976 -0.6658,0.8739 -1.088,1.9088 -1.2235,2.999 -0.173,0.775 0.085,1.378 0.688,1.465 h 0.259 c 0.603,0 0.861,-0.776 0.948,-1.379 0.2005,-1.0633 0.7065,-2.0452 1.4561,-2.8255 0.7497,-0.7804 1.7105,-1.3254 2.7649,-1.5685 h 0.775 c 0.7266,-0.0487 1.4554,0.0566 2.1385,0.309 0.6831,0.2525 1.3052,0.6464 1.8255,1.156 0.4302,0.4758 0.7406,1.0474 0.9053,1.6673 0.1647,0.6199 0.179,1.2702 0.0417,1.8967 z"
       fill="#2a2a2a"
       id="path6" />
    <path
       d="m 37.2129,26.558 c -0.431,4.05 -4.739,4.394 -6.031,4.394 h -16.972 c -1.637,0 -5.08301,-1.378 -5.38501,-3.963 -0.06481,-0.6174 -0.0027,-1.2416 0.1825,-1.8342 0.18521,-0.5926 0.48961,-1.1411 0.8945,-1.6118 0.44751,-0.5327 0.99941,-0.9682 1.62161,-1.2795 0.6223,-0.3113 1.3017,-0.4918 1.9964,-0.5305 h 0.883 c 0.6336,-0.0254 1.2631,0.1118 1.8287,0.3985 0.5655,0.2868 1.0483,0.7135 1.4023,1.2395 0,0 0.173,0.172 0.173,0.258 0.177,0.363 0.543,0.596 0.947,0.603 0.3,0.025 0.58,-0.15 0.69,-0.43 0.0749,-0.2599 0.0742,-0.5357 -0.0022,-0.7952 -0.0763,-0.2595 -0.2251,-0.4918 -0.4288,-0.6698 -0.431,-0.43 -0.69,-0.603 -0.862,-0.775 -0.172,-0.173 -0.344,-0.259 -0.43,-0.517 0.1552,-1.3074 0.7935,-2.5096 1.7897,-3.3705 0.9962,-0.8609 2.2782,-1.3183 3.5943,-1.2825 1.3706,-0.031 2.7132,0.3912 3.8192,1.2013 1.1061,0.8101 1.9138,1.9626 2.2978,3.2787 -1.0153,0.4203 -1.901,1.1023 -2.5668,1.9764 -0.6657,0.8741 -1.0878,1.9092 -1.2232,2.9996 -0.173,0.775 0.085,1.378 0.688,1.464 h 0.259 c 0.603,0 0.861,-0.775 0.948,-1.378 0.2005,-1.0633 0.7065,-2.0452 1.4561,-2.8255 0.7497,-0.7804 1.7104,-1.3254 2.7649,-1.5685 h 0.775 c 0.7266,-0.0487 1.4554,0.0566 2.1385,0.309 0.6831,0.2525 1.3052,0.6464 1.8255,1.156 0.86,0.967 1.205,2.289 0.926,3.553 z"
       fill="#c3c5c7"
       id="path8" />
    <path
       d="M 17.834,38.922 H 15.68 v 2.153 h -1.378 v -5.277 h 1.421 v 1.96 h 2.154 v -2.013 h 1.411 v 5.277 h -1.454 z m 3.78,-3.177 h 1.508 l 0.064,0.107 2.1,5.159 h -1.453 c 0,0 -0.054,0 -0.076,-0.097 l -0.28,-0.765 h -2.154 l -0.258,0.765 c 0.0107,0.0315 0.0107,0.0656 0,0.097 h -1.432 z m 0.754,1.346 c -0.044,0.196 -0.098,0.39 -0.162,0.581 -0.075,0.248 -0.183,0.55 -0.312,0.916 l -0.14,0.452 h 1.292 l -0.161,-0.452 c -0.15,-0.388 -0.259,-0.7 -0.345,-0.937 -0.065,-0.1832 -0.1188,-0.3702 -0.161,-0.56 z m 4.738,3.931 h -1.41 v -5.277 h 1.41 z m 0.852,-5.277 h 1.42 v 4.103 h 2.585 v 1.174 H 27.958 Z M 38.21,26.558 c -0.259,0 -0.345,-1.636 -0.345,-1.636 0.7012,-0.5693 1.2608,-1.2937 1.6345,-2.116 0.3738,-0.8224 0.5516,-1.7202 0.5195,-2.623 -0.0026,-1.6636 -0.6631,-3.2586 -1.8374,-4.437 -1.1743,-1.1784 -2.767,-1.8445 -4.4306,-1.853 -0.9481,0.0018 -1.8834,0.22 -2.7343,0.6382 -0.8509,0.4182 -1.5951,1.0253 -2.1757,1.7748 -0.26,0.345 -0.604,0.948 -0.948,0.69 -0.173,-0.173 -0.776,-0.26 -0.862,-0.69 -0.086,-0.43 0.43,-0.861 0.517,-1.077 0.7489,-0.9492 1.7024,-1.7172 2.7894,-2.2467 1.087,-0.5295 2.2795,-0.8068 3.4886,-0.8113 2.0852,-0.0058 4.0878,0.8147 5.5693,2.282 1.4816,1.4673 2.3214,3.4619 2.3357,5.547 -0.009,1.1847 -0.2758,2.3531 -0.7817,3.4243 -0.506,1.0711 -1.2391,2.0193 -2.1483,2.7787 -0.0697,0.0958 -0.1579,0.1766 -0.2594,0.2376 -0.1016,0.061 -0.2143,0.1009 -0.3316,0.1174 z M 33.805,10.62 c -0.2286,0 -0.4479,-0.0908 -0.6095,-0.2524 C 33.0338,10.2059 32.943,9.98666 32.943,9.75804 v -2.843 c 0.0076,-0.2234 0.1017,-0.43511 0.2624,-0.59046 0.1608,-0.15535 0.3756,-0.24218 0.5991,-0.24218 0.2235,0 0.4383,0.08683 0.5991,0.24218 0.1607,0.15535 0.2548,0.36706 0.2624,0.59046 v 2.843 c -0.0252,0.21977 -0.1239,0.42456 -0.2803,0.58106 -0.1563,0.1565 -0.361,0.2555 -0.5807,0.2809 z M 46.998,21.077 H 44.154 C 43.9256,21.0768 43.7066,20.9858 43.5451,20.8242 43.3837,20.6626 43.293,20.4435 43.293,20.215 43.2872,20.1076 43.3027,20 43.3385,19.8986 c 0.0358,-0.1015 0.0913,-0.1949 0.1633,-0.2749 0.072,-0.08 0.1591,-0.145 0.2562,-0.1912 0.0972,-0.0463 0.2025,-0.073 0.31,-0.0785 h 2.93 c 0.475,0 0.86,0.386 0.86,0.861 0.0073,0.1061 -0.0063,0.2126 -0.0402,0.3134 -0.0339,0.1008 -0.0874,0.1939 -0.1574,0.274 -0.0699,0.08 -0.155,0.1455 -0.2503,0.1927 -0.0953,0.0471 -0.199,0.075 -0.3051,0.0819 h -0.108 z m -5.86,-7.442 C 40.9112,13.6316 40.6949,13.5389 40.536,13.377 40.4589,13.3 40.3977,13.2085 40.356,13.1077 40.3143,13.007 40.2928,12.8991 40.2928,12.79 c 0,-0.109 0.0215,-0.2169 0.0632,-0.3177 0.0417,-0.1007 0.1029,-0.1922 0.18,-0.2693 l 1.981,-1.981 c 0.0622,-0.0933 0.1421,-0.1735 0.2353,-0.236 0.0932,-0.06247 0.1978,-0.10597 0.3078,-0.12803 0.11,-0.02205 0.2232,-0.02222 0.3333,-5.1e-4 0.11,0.02172 0.2147,0.0649 0.3081,0.12708 0.0934,0.06216 0.1736,0.14216 0.236,0.23536 0.0625,0.0931 0.106,0.1977 0.1281,0.3077 0.022,0.11 0.0222,0.2233 5e-4,0.3333 -0.0217,0.1101 -0.0649,0.2148 -0.1271,0.3081 -0.055,0.0873 -0.1288,0.1611 -0.216,0.216 l -1.981,1.981 c -0.1604,0.162 -0.3754,0.2583 -0.603,0.27 z m -14.732,0 c -0.2271,-0.0031 -0.4438,-0.0959 -0.603,-0.258 l -1.981,-1.992 c -0.1557,-0.1623 -0.2426,-0.3785 -0.2426,-0.6035 0,-0.2249 0.0869,-0.4411 0.2426,-0.6035 0.079,-0.0795 0.173,-0.1426 0.2764,-0.18565 0.1035,-0.04306 0.2145,-0.06523 0.3266,-0.06523 0.1121,0 0.2231,0.02217 0.3266,0.06523 0.1035,0.04305 0.1974,0.10615 0.2764,0.18565 l 1.982,1.982 c 0.1513,0.1515 0.2363,0.3569 0.2363,0.571 0,0.2142 -0.085,0.4195 -0.2363,0.571 -0.0699,0.0967 -0.1603,0.1767 -0.2647,0.2342 -0.1044,0.0576 -0.2203,0.0913 -0.3393,0.0988 z M 43.12,30.35 c -0.2274,-0.0037 -0.4442,-0.0971 -0.603,-0.26 l -1.981,-1.98 c -0.1362,-0.1794 -0.1968,-0.405 -0.1688,-0.6285 0.028,-0.2236 0.1425,-0.4272 0.3188,-0.5675 0.1511,-0.1261 0.3417,-0.1953 0.5385,-0.1953 0.1968,0 0.3874,0.0692 0.5385,0.1953 l 1.982,1.981 c 0.1513,0.1515 0.2363,0.3569 0.2363,0.571 0,0.2142 -0.085,0.4195 -0.2363,0.571 -0.0731,0.0967 -0.1675,0.1752 -0.2759,0.2293 -0.1085,0.0541 -0.2279,0.0824 -0.3491,0.0827 z"
       fill="#2a2a2a"
       id="path10" />
    <path
       d="m 30.886,20.183 c 0.9051,-0.1953 1.834,-0.257 2.757,-0.183 1.1573,0.0942 2.2581,0.5398 3.1551,1.277 0.897,0.7372 1.5473,1.7309 1.8639,2.848 0.9176,-1.109 1.4,-2.5142 1.357,-3.953 -0.0029,-1.6634 -0.6635,-3.2582 -1.8378,-4.4364 -1.1742,-1.1781 -2.7668,-1.8441 -4.4302,-1.8526 -0.9481,0.0016 -1.8832,0.2198 -2.7342,0.6378 -0.8509,0.418 -1.5951,1.0249 -2.1758,1.7742 l -0.216,0.302 c 1.0784,0.9568 1.8626,2.2005 2.261,3.586 z"
       fill="#ef9d33"
       id="path12" />
  </g>
  <defs
     id="defs26">
    <filter
       id="filter0_f"
       x="4.8280001"
       y="28"
       width="35"
       height="21"
       filterUnits="userSpaceOnUse"
       color-interpolation-filters="sRGB">
      <feFlood
         flood-opacity="0"
         result="BackgroundImageFix"
         id="feFlood16" />
      <feBlend
         mode="normal"
         in="SourceGraphic"
         in2="BackgroundImageFix"
         result="shape"
         id="feBlend18" />
      <feGaussianBlur
         stdDeviation="3"
         result="effect1_foregroundBlur"
         id="feGaussianBlur20" />
    </filter>
    <clipPath
       id="clip0">
      <rect
         width="48"
         height="48"
         fill="#ffffff"
         id="rect23"
         x="0"
         y="0" />
    </clipPath>
  </defs>
</svg>
