<?xml version="1.0" encoding="UTF-8" standalone="no"?>
<svg
   xmlns:dc="http://purl.org/dc/elements/1.1/"
   xmlns:cc="http://creativecommons.org/ns#"
   xmlns:rdf="http://www.w3.org/1999/02/22-rdf-syntax-ns#"
   xmlns:svg="http://www.w3.org/2000/svg"
   xmlns="http://www.w3.org/2000/svg"
   xmlns:sodipodi="http://sodipodi.sourceforge.net/DTD/sodipodi-0.dtd"
   xmlns:inkscape="http://www.inkscape.org/namespaces/inkscape"
   width="36"
   height="33.946388"
   viewBox="0 0 36 33.946388"
   fill="none"
   version="1.1"
   id="svg26"
   sodipodi:docname="21.svg"
   inkscape:version="1.0.1 (1.0.1+r74)">
  <metadata
     id="metadata30">
    <rdf:RDF>
      <cc:Work
         rdf:about="">
        <dc:format>image/svg+xml</dc:format>
        <dc:type
           rdf:resource="http://purl.org/dc/dcmitype/StillImage" />
      </cc:Work>
    </rdf:RDF>
  </metadata>
  <sodipodi:namedview
     pagecolor="#ffffff"
     bordercolor="#666666"
     borderopacity="1"
     objecttolerance="10"
     gridtolerance="10"
     guidetolerance="10"
     inkscape:pageopacity="0"
     inkscape:pageshadow="2"
     inkscape:window-width="748"
     inkscape:window-height="480"
     id="namedview28"
     showgrid="false"
     inkscape:zoom="11.916667"
     inkscape:cx="19.17599"
     inkscape:cy="9.9463881"
     inkscape:window-x="0"
     inkscape:window-y="0"
     inkscape:window-maximized="0"
     inkscape:current-layer="svg26" />
  <g
     clip-path="url(#clip0)"
     id="g12"
     transform="translate(-4.8240099,-14.053612)">
    <g
       filter="url(#filter0_f)"
       id="g4">
      <path
         d="m 30.324,34 h -15 c -2.4853,0 -4.5,2.0147 -4.5,4.5 0,2.4853 2.0147,4.5 4.5,4.5 h 15 c 2.4853,0 4.5,-2.0147 4.5,-4.5 0,-2.4853 -2.0147,-4.5 -4.5,-4.5 z"
         fill="#ffffff"
         id="path2" />
    </g>
    <path
       d="m 34.214,19.6 c -0.9422,-0.0794 -1.891,-0.0201 -2.816,0.176 -0.5139,-1.6878 -1.5664,-3.1609 -2.9967,-4.1938 -1.4303,-1.033 -3.1595,-1.5691 -4.9233,-1.5262 -3.96,0 -7.04,2.464 -7.48,5.632 C 15.6892,19.6092 15.37,19.5795 15.052,19.6 h -1.1 C 10.08,19.864 7,22.68 7,26.112 c 0,3.608 3.3,6.512 7.48,6.512 h 16.83 c 4.048,0 8.272,-1.584 8.272,-7.128 0.0059,-1.4764 -0.5423,-2.9013 -1.5362,-3.993 -0.994,-1.0917 -2.3613,-1.7708 -3.8318,-1.903 z m 3.608,6.688 c -0.44,4.136 -4.84,4.488 -6.16,4.488 H 14.326 c -1.672,0 -5.192,-1.408 -5.5,-4.048 C 8.75979,26.0973 8.82322,25.4597 9.01238,24.8543 9.20154,24.249 9.51245,23.6888 9.926,23.208 c 0.4572,-0.5442 1.021,-0.9888 1.6567,-1.3067 0.6356,-0.3178 1.3297,-0.5021 2.0393,-0.5413 h 0.902 c 0.647,-0.026 1.2899,0.114 1.8675,0.4066 0.5777,0.2927 1.0708,0.7283 1.4325,1.2654 0,0 0.176,0.176 0.176,0.264 0.089,0.1818 0.2265,0.3355 0.3973,0.4442 0.1708,0.1087 0.3683,0.1681 0.5707,0.1718 0.1491,0.0125 0.2983,-0.0236 0.4252,-0.1029 0.1269,-0.0794 0.2247,-0.1976 0.2788,-0.3371 0.0765,-0.2654 0.0758,-0.5471 -0.0021,-0.8121 -0.078,-0.265 -0.2299,-0.5022 -0.4379,-0.6839 -0.44,-0.44 -0.704,-0.616 -0.88,-0.792 -0.176,-0.176 -0.352,-0.264 -0.44,-0.528 0.1587,-1.3355 0.8109,-2.5634 1.8285,-3.4426 1.0176,-0.8792 2.3272,-1.3463 3.6715,-1.3094 1.4,-0.0318 2.7713,0.3995 3.9011,1.2269 1.1298,0.8274 1.9548,2.0047 2.3469,3.3491 -1.0371,0.4291 -1.9419,1.1255 -2.6221,2.0183 -0.6802,0.8927 -1.1115,1.9499 -1.2499,3.0637 -0.176,0.792 0.088,1.408 0.704,1.496 h 0.264 c 0.616,0 0.88,-0.792 0.968,-1.408 0.2048,-1.0862 0.7218,-2.0892 1.4876,-2.8862 0.7658,-0.7971 1.7473,-1.3537 2.8244,-1.6018 h 0.792 c 0.742,-0.0498 1.4862,0.0577 2.1838,0.3155 0.6976,0.2578 1.3329,0.6601 1.8642,1.1805 0.4397,0.4859 0.7569,1.0698 0.9253,1.7032 0.1684,0.6333 0.183,1.2976 0.0427,1.9378 z"
       fill="#2a2a2a"
       id="path6" />
    <path
       d="m 37.822,26.299 c -0.44,4.136 -4.84,4.488 -6.16,4.488 H 14.326 c -1.672,0 -5.19201,-1.408 -5.50001,-4.048 C 8.75979,26.1083 8.82321,25.4707 9.01237,24.8653 9.20153,24.26 9.51244,23.6998 9.92599,23.219 10.3832,22.6748 10.947,22.2301 11.5827,21.9123 12.2183,21.5945 12.9124,21.4102 13.622,21.371 h 0.902 c 0.647,-0.026 1.2899,0.114 1.8675,0.4066 0.5776,0.2927 1.0708,0.7283 1.4325,1.2654 0,0 0.176,0.176 0.176,0.264 0.089,0.1818 0.2265,0.3355 0.3973,0.4442 0.1708,0.1087 0.3683,0.1681 0.5707,0.1718 0.1491,0.0125 0.2983,-0.0236 0.4252,-0.1029 0.1269,-0.0794 0.2247,-0.1976 0.2788,-0.3371 0.0765,-0.2654 0.0758,-0.5471 -0.0021,-0.8121 -0.078,-0.265 -0.2299,-0.5022 -0.4379,-0.6839 -0.44,-0.44 -0.704,-0.616 -0.88,-0.792 -0.176,-0.176 -0.352,-0.264 -0.44,-0.528 0.1587,-1.3355 0.8109,-2.5634 1.8285,-3.4426 1.0176,-0.8792 2.3272,-1.3463 3.6715,-1.3094 1.4,-0.0318 2.7713,0.3995 3.9011,1.2269 1.1298,0.8274 1.9548,2.0047 2.3469,3.3491 -1.0371,0.4291 -1.9419,1.1255 -2.6221,2.0183 -0.6802,0.8927 -1.1115,1.9499 -1.2499,3.0637 -0.176,0.792 0.088,1.408 0.704,1.496 h 0.264 c 0.616,0 0.88,-0.792 0.968,-1.408 0.2048,-1.0862 0.7218,-2.0892 1.4876,-2.8862 0.7658,-0.7971 1.7473,-1.3537 2.8244,-1.6018 h 0.792 c 0.742,-0.0498 1.4862,0.0577 2.1838,0.3155 0.6976,0.2578 1.3329,0.6601 1.8642,1.1805 0.88,0.988 1.23,2.338 0.946,3.63 z"
       fill="#c3c5c7"
       id="path8" />
    <path
       d="m 18.066,38.927 h -2.2 v 2.2 h -1.408 v -5.39 h 1.452 v 2.002 h 2.2 v -2.057 h 1.441 v 5.39 h -1.485 z m 3.861,-3.245 h 1.54 l 0.066,0.11 2.145,5.269 h -1.485 c 0,0 -0.055,0 -0.077,-0.099 L 23.83,40.181 h -2.2 l -0.264,0.781 c 0.01,0.032 0.01,0.067 0,0.099 h -1.463 z m 0.77,1.375 c -0.045,0.2 -0.1,0.399 -0.165,0.594 -0.077,0.253 -0.187,0.561 -0.319,0.935 l -0.143,0.462 h 1.32 L 23.225,38.586 C 23.071,38.19 22.961,37.871 22.873,37.629 22.8064,37.4418 22.7513,37.2508 22.708,37.057 Z m 4.84,4.015 h -1.441 v -5.39 h 1.441 z m 0.869,-5.39 h 1.452 v 4.191 h 2.64 v 1.199 h -4.092 z"
       fill="#2a2a2a"
       id="path10" />
  </g>
  <defs
     id="defs24">
    <filter
       id="filter0_f"
       x="4.8240099"
       y="28"
       width="36"
       height="21"
       filterUnits="userSpaceOnUse"
       color-interpolation-filters="sRGB">
      <feFlood
         flood-opacity="0"
         result="BackgroundImageFix"
         id="feFlood14" />
      <feBlend
         mode="normal"
         in="SourceGraphic"
         in2="BackgroundImageFix"
         result="shape"
         id="feBlend16" />
      <feGaussianBlur
         stdDeviation="3"
         result="effect1_foregroundBlur"
         id="feGaussianBlur18" />
    </filter>
    <clipPath
       id="clip0">
      <rect
         width="48"
         height="48"
         fill="#ffffff"
         id="rect21"
         x="0"
         y="0" />
    </clipPath>
  </defs>
</svg>
