<?xml version="1.0" encoding="UTF-8" standalone="no"?>
<svg
   xmlns:dc="http://purl.org/dc/elements/1.1/"
   xmlns:cc="http://creativecommons.org/ns#"
   xmlns:rdf="http://www.w3.org/1999/02/22-rdf-syntax-ns#"
   xmlns:svg="http://www.w3.org/2000/svg"
   xmlns="http://www.w3.org/2000/svg"
   xmlns:sodipodi="http://sodipodi.sourceforge.net/DTD/sodipodi-0.dtd"
   xmlns:inkscape="http://www.inkscape.org/namespaces/inkscape"
   width="32.582047"
   height="29.56772"
   viewBox="0 0 32.582047 29.56772"
   fill="none"
   version="1.1"
   id="svg18"
   sodipodi:docname="27.svg"
   inkscape:version="1.0.1 (1.0.1+r74)">
  <metadata
     id="metadata24">
    <rdf:RDF>
      <cc:Work
         rdf:about="">
        <dc:format>image/svg+xml</dc:format>
        <dc:type
           rdf:resource="http://purl.org/dc/dcmitype/StillImage" />
      </cc:Work>
    </rdf:RDF>
  </metadata>
  <defs
     id="defs22" />
  <sodipodi:namedview
     pagecolor="#ffffff"
     bordercolor="#666666"
     borderopacity="1"
     objecttolerance="10"
     gridtolerance="10"
     guidetolerance="10"
     inkscape:pageopacity="0"
     inkscape:pageshadow="2"
     inkscape:window-width="748"
     inkscape:window-height="480"
     id="namedview20"
     showgrid="false"
     inkscape:zoom="11.916667"
     inkscape:cx="17"
     inkscape:cy="9.9463881"
     inkscape:window-x="0"
     inkscape:window-y="0"
     inkscape:window-maximized="0"
     inkscape:current-layer="svg18" />
  <path
     d="m 27.214,5.5463881 c -0.9422,-0.0794 -1.891,-0.0201 -2.816,0.176 -0.5139,-1.6878 -1.5664,-3.1609 -2.9967,-4.1938 -1.4303,-1.03299996 -3.1595,-1.56909996 -4.9233,-1.52619996 -3.96,0 -7.04,2.46399996 -7.48,5.63199996 -0.3088,-0.0788 -0.628,-0.1085 -0.946,-0.088 h -1.1 C 3.08,5.8103881 0,8.6263881 0,12.058388 c 0,3.608 3.3,6.512 7.48,6.512 h 16.83 c 4.048,0 8.272,-1.584 8.272,-7.128 0.0059,-1.4763999 -0.5423,-2.9012999 -1.5362,-3.9929999 -0.994,-1.0917 -2.3613,-1.7708 -3.8318,-1.903 z m 3.608,6.6879999 c -0.44,4.136 -4.84,4.488 -6.16,4.488 H 7.326 c -1.672,0 -5.192,-1.408 -5.5,-4.048 -0.06621,-0.6307 -0.00278,-1.2683 0.18638,-1.8737 0.18916,-0.6053 0.50007,-1.1654999 0.91362,-1.6462999 0.4572,-0.5442 1.021,-0.9889 1.6567,-1.3067 0.6356,-0.3178 1.3297,-0.5021 2.0393,-0.5413 h 0.902 c 0.647,-0.026 1.2899,0.114 1.8675,0.4066 0.5777,0.2927 1.0708,0.7283 1.4325,1.2654 0,0 0.176,0.176 0.176,0.264 0.089,0.1818 0.2265,0.3355 0.3973,0.4442 0.1708,0.1087 0.3683,0.1681 0.5707,0.1718 0.1491,0.0125 0.2983,-0.0236 0.4252,-0.1029 0.1269,-0.0794 0.2247,-0.1976 0.2788,-0.3371 0.0765,-0.2654 0.0758,-0.5471 -0.0021,-0.8121 -0.078,-0.265 -0.2299,-0.5022 -0.4379,-0.6839 -0.44,-0.44 -0.704,-0.616 -0.88,-0.792 -0.176,-0.176 -0.352,-0.264 -0.44,-0.528 0.1587,-1.3355 0.8109,-2.5634 1.8285,-3.4426 1.0176,-0.8792 2.3272,-1.3463 3.6715,-1.3094 1.4,-0.0318 2.7713,0.3995 3.9011,1.2269 1.1298,0.8274 1.9548,2.0047 2.3469,3.3491 -1.0371,0.4291 -1.9419,1.1255 -2.6221,2.0183 -0.6802,0.8927 -1.1115,1.9498999 -1.2499,3.0636999 -0.176,0.792 0.088,1.408 0.704,1.496 h 0.264 c 0.616,0 0.88,-0.792 0.968,-1.408 0.2048,-1.0862 0.7218,-2.0891999 1.4876,-2.8861999 0.7658,-0.7971 1.7473,-1.3537 2.8244,-1.6018 h 0.792 c 0.742,-0.0498 1.4862,0.0577 2.1838,0.3155 0.6976,0.2578 1.3329,0.6601 1.8642,1.1805 0.4397,0.4859 0.7569,1.0698 0.9253,1.7031999 0.1684,0.6333 0.183,1.2976 0.0427,1.9378 z"
     fill="#2a2a2a"
     id="path2" />
  <path
     opacity="0.6"
     d="m 30.822,12.245388 c -0.44,4.136 -4.84,4.488 -6.16,4.488 H 7.326 c -1.672,0 -5.19201,-1.408 -5.50001,-4.048 -0.0662,-0.6308 -0.00278,-1.2684 0.18638,-1.8737 0.18916,-0.6053 0.50007,-1.1654999 0.91362,-1.6462999 0.45721,-0.5442 1.02101,-0.9889 1.65671,-1.3067 0.6356,-0.3178 1.3297,-0.5021 2.0393,-0.5413 h 0.902 c 0.647,-0.026 1.2899,0.114 1.8675,0.4066 0.5776,0.2927 1.0708,0.7283 1.4325,1.2654 0,0 0.176,0.176 0.176,0.264 0.089,0.1818 0.2265,0.3355 0.3973,0.4442 0.1708,0.1087 0.3683,0.1681 0.5707,0.1718 0.1491,0.0125 0.2983,-0.0236 0.4252,-0.103 0.1269,-0.0793 0.2247,-0.1975 0.2788,-0.337 0.0765,-0.2654 0.0758,-0.5471 -0.0021,-0.8121 -0.078,-0.265 -0.2299,-0.5023 -0.4379,-0.6839 -0.44,-0.44 -0.704,-0.616 -0.88,-0.792 -0.176,-0.176 -0.352,-0.264 -0.44,-0.528 0.1587,-1.3355 0.8109,-2.5634 1.8285,-3.4426 1.0176,-0.8792 2.3272,-1.3463 3.6715,-1.3094 1.4,-0.0318 2.7713,0.3995 3.9011,1.2269 1.1298,0.8274 1.9548,2.0047 2.3469,3.3491 -1.0371,0.4291 -1.9419,1.1255 -2.6221,2.0182 -0.6802,0.8928 -1.1115,1.9499999 -1.2499,3.0637999 -0.176,0.792 0.088,1.408 0.704,1.496 h 0.264 c 0.616,0 0.88,-0.792 0.968,-1.408 0.2048,-1.0862 0.7218,-2.0891999 1.4876,-2.8862999 0.7658,-0.797 1.7473,-1.3536 2.8244,-1.6017 h 0.792 c 0.742,-0.0498 1.4862,0.0577 2.1838,0.3155 0.6976,0.2578 1.3329,0.6601 1.8642,1.1805 0.88,0.988 1.23,2.3379999 0.946,3.6299999 z"
     fill="#828190"
     id="path4" />
  <path
     d="m 9.4243,27.016388 c -0.2651,-0.1537 -0.4259,-0.4266 -0.4243,-0.72 0,-0.2122 0.0894,-0.4157 0.2485,-0.5657 0.1591,-0.15 0.375,-0.2343 0.6,-0.2343 h 5.303 c 0.4686,0 0.8485,0.3582 0.8485,0.8 0,0.4418 -0.3799,0.8 -0.8485,0.8 h -5.303 c -0.1464,0.0093 -0.2929,-0.0183 -0.4242,-0.08 z"
     fill="#828190"
     id="path6" />
  <path
     d="m 10.283,24.073788 c 5e-4,-0.3064 0.1565,-0.5821 0.4114,-0.7274 0.1837,-0.1061 0.4047,-0.1304 0.6141,-0.0676 0.2095,0.0628 0.3904,0.2075 0.503,0.4024 l 2.6515,4.5926 c 0.2343,0.4058 0.114,0.9139 -0.2686,1.1348 -0.3826,0.2209 -0.8828,0.071 -1.1171,-0.3348 l -2.6515,-4.5926 c -0.0812,-0.1222 -0.1305,-0.2628 -0.1428,-0.4074 z"
     fill="#828190"
     id="path8" />
  <path
     d="m 11.6885,29.451188 c -0.2656,0.1527 -0.5824,0.1555 -0.8356,0.0074 -0.1838,-0.1061 -0.3153,-0.2853 -0.3657,-0.4981 -0.0503,-0.2128 -0.0154,-0.4419 0.0971,-0.6367 l 2.6515,-4.5926 c 0.2343,-0.4058 0.7344,-0.5557 1.1171,-0.3348 0.3826,0.2209 0.5028,0.729 0.2685,1.1348 l -2.6515,4.5926 c -0.0652,0.1314 -0.1623,0.2444 -0.2814,0.3274 z"
     fill="#828190"
     id="path10" />
  <path
     d="m 17.4243,25.016388 c -0.2651,-0.1537 -0.4259,-0.4266 -0.4243,-0.72 0,-0.2122 0.0894,-0.4157 0.2485,-0.5657 0.1591,-0.15 0.375,-0.2343 0.6,-0.2343 h 5.303 c 0.4686,0 0.8485,0.3582 0.8485,0.8 0,0.4418 -0.3799,0.8 -0.8485,0.8 h -5.303 c -0.1464,0.0093 -0.2929,-0.0183 -0.4242,-0.08 z"
     fill="#828190"
     id="path12" />
  <path
     d="m 18.283,22.073788 c 5e-4,-0.3064 0.1565,-0.5821 0.4114,-0.7274 0.1837,-0.1061 0.4047,-0.1304 0.6141,-0.0676 0.2095,0.0628 0.3904,0.2075 0.503,0.4024 l 2.6515,4.5926 c 0.2343,0.4058 0.114,0.9139 -0.2686,1.1348 -0.3826,0.2209 -0.8828,0.071 -1.1171,-0.3348 l -2.6515,-4.5926 c -0.0812,-0.1222 -0.1305,-0.2628 -0.1428,-0.4074 z"
     fill="#828190"
     id="path14" />
  <path
     d="m 19.6885,27.451188 c -0.2656,0.1527 -0.5824,0.1555 -0.8356,0.0074 -0.1838,-0.1061 -0.3153,-0.2853 -0.3657,-0.4981 -0.0503,-0.2128 -0.0154,-0.4419 0.0971,-0.6367 l 2.6515,-4.5926 c 0.2343,-0.4058 0.7344,-0.5557 1.1171,-0.3348 0.3826,0.2209 0.5028,0.729 0.2685,1.1348 l -2.6515,4.5926 c -0.0652,0.1314 -0.1623,0.2444 -0.2814,0.3274 z"
     fill="#828190"
     id="path16" />
</svg>
