<?xml version="1.0" encoding="UTF-8" standalone="no"?>
<svg
   xmlns:dc="http://purl.org/dc/elements/1.1/"
   xmlns:cc="http://creativecommons.org/ns#"
   xmlns:rdf="http://www.w3.org/1999/02/22-rdf-syntax-ns#"
   xmlns:svg="http://www.w3.org/2000/svg"
   xmlns="http://www.w3.org/2000/svg"
   xmlns:sodipodi="http://sodipodi.sourceforge.net/DTD/sodipodi-0.dtd"
   xmlns:inkscape="http://www.inkscape.org/namespaces/inkscape"
   width="35.613049"
   height="32.072948"
   viewBox="0 0 35.613049 32.072948"
   fill="none"
   version="1.1"
   id="svg16"
   sodipodi:docname="28.svg"
   inkscape:version="1.0.1 (1.0.1+r74)">
  <metadata
     id="metadata22">
    <rdf:RDF>
      <cc:Work
         rdf:about="">
        <dc:format>image/svg+xml</dc:format>
        <dc:type
           rdf:resource="http://purl.org/dc/dcmitype/StillImage" />
      </cc:Work>
    </rdf:RDF>
  </metadata>
  <defs
     id="defs20" />
  <sodipodi:namedview
     pagecolor="#ffffff"
     bordercolor="#666666"
     borderopacity="1"
     objecttolerance="10"
     gridtolerance="10"
     guidetolerance="10"
     inkscape:pageopacity="0"
     inkscape:pageshadow="2"
     inkscape:window-width="748"
     inkscape:window-height="480"
     id="namedview18"
     showgrid="false"
     inkscape:zoom="11.916667"
     inkscape:cx="20.300002"
     inkscape:cy="12.996682"
     inkscape:window-x="0"
     inkscape:window-y="0"
     inkscape:window-maximized="0"
     inkscape:current-layer="svg16" />
  <path
     d="m 30.289002,8.8146815 c -0.9342,-0.0784 -1.8749,-0.0195 -2.792,0.175 -0.5096,-1.674 -1.5534,-3.135 -2.972,-4.1595 -1.4186,-1.0245 -3.1337,-1.5561 -4.883,-1.5135 -3.927,0 -6.982,2.444 -7.418,5.585 -0.3062,-0.078 -0.6227,-0.1074 -0.938,-0.087 h -1.091 c -3.8400002,0.262 -6.8950002,3.0550005 -6.8950002,6.4580005 0,3.579 3.273,6.459 7.4180002,6.459 h 16.691 c 4.015,0 8.204,-1.571 8.204,-7.07 0.0059,-1.4642 -0.5379,-2.8773 -1.5237,-3.96 -0.9858,-1.0827005 -2.3419,-1.7560005 -3.8003,-1.8870005 z m 3.579,6.6330005 c -0.437,4.102 -4.8,4.45 -6.11,4.45 h -17.192 c -1.6580002,0 -5.1500002,-1.396 -5.4550002,-4.014 -0.06549,-0.6254 -0.0025,-1.2575 0.18511,-1.8577 0.18761,-0.6001 0.49588,-1.1556 0.90589,-1.6323 0.4534,-0.5397 1.0127,-0.9808 1.6432,-1.2961 0.6305,-0.3153 1.3189,-0.498 2.0228,-0.5369 h 0.8940002 c 0.6417,-0.0258 1.2793,0.113 1.8522,0.4032 0.5729,0.2902 1.062,0.7222 1.4208,1.2548 0,0 0.174,0.174 0.174,0.262 0.18,0.367 0.551,0.603 0.96,0.61 0.148,0.0127 0.2961,-0.023 0.4221,-0.1016 0.126,-0.0786 0.2232,-0.1959 0.2769,-0.3344 0.0757,-0.2632 0.0748,-0.5424 -0.0026,-0.8051 -0.0774,-0.2627 -0.2281,-0.4978 -0.4344,-0.6779 -0.436,-0.437 -0.698,-0.611 -0.873,-0.786 -0.174,-0.174 -0.349,-0.262 -0.436,-0.5240005 0.1574,-1.3244 0.8043,-2.5421 1.8137,-3.4139 1.0093,-0.8719 2.3081,-1.3349 3.6413,-1.2981 1.3884,-0.0315 2.7483,0.3962 3.8687,1.2168 1.1203,0.8205 1.9385,1.988 2.3273,3.3212 -1.0285,0.4256005 -1.9258,1.1163005 -2.6003,2.0016005 -0.6746,0.8854 -1.1024,1.9338 -1.2397,3.0384 -0.175,0.785 0.087,1.396 0.698,1.484 h 0.262 c 0.61,0 0.873,-0.786 0.96,-1.397 0.2033,-1.077 0.716,-2.0714 1.4753,-2.8617 0.7594,-0.7903 1.7327,-1.3422 2.8007,-1.5883 h 0.786 c 1.488,-0.1 2.949,0.44 4.014,1.483 0.4359,0.4818 0.7504,1.0608 0.9174,1.6887 0.167,0.6279 0.1816,1.2866 0.0426,1.9213 z"
     fill="#2a2a2a"
     id="path2" />
  <path
     d="m 33.886302,15.458682 c -0.437,4.102 -4.8,4.45 -6.11,4.45 h -17.192 c -1.6580002,0 -5.1500002,-1.396 -5.4550002,-4.014 -0.06549,-0.6254 -0.0025,-1.2576 0.18511,-1.8577 0.18761,-0.6001 0.49588,-1.1556 0.90589,-1.6323 0.4534,-0.5398 1.0127,-0.9809 1.6432,-1.2962 0.6305,-0.3152 1.3189,-0.4979 2.0228,-0.5368 h 0.8940002 c 0.6417,-0.0258 1.2793,0.113 1.8522,0.4032 0.5729,0.2902 1.062,0.7221 1.4208,1.2548 0,0 0.174,0.174 0.174,0.262 0.18,0.367 0.551,0.603 0.96,0.61 0.148,0.0126 0.2961,-0.023 0.4221,-0.1016 0.126,-0.0786 0.2232,-0.196 0.2769,-0.3344 0.0759,-0.2633 0.0751,-0.5428 -0.0023,-0.8057 -0.0774,-0.2629 -0.2282,-0.4982 -0.4347,-0.6783 -0.436,-0.436 -0.698,-0.61 -0.873,-0.785 -0.174,-0.175 -0.349,-0.262 -0.436,-0.5240005 0.1574,-1.3244 0.8043,-2.5421 1.8137,-3.414 1.0093,-0.8718 2.3081,-1.3348 3.6413,-1.298 1.3884,-0.0316 2.7483,0.3961 3.8687,1.2167 1.1204,0.8206 1.9385,1.9881 2.3273,3.3213 -1.0285,0.4255005 -1.9258,1.1162005 -2.6003,2.0016005 -0.6746,0.8854 -1.1024,1.9338 -1.2397,3.0384 -0.175,0.785 0.087,1.396 0.698,1.483 h 0.262 c 0.61,0 0.873,-0.785 0.96,-1.396 0.2033,-1.077 0.716,-2.0715 1.4754,-2.8618 0.7593,-0.7903 1.7326,-1.3422 2.8006,-1.5882 h 0.786 c 1.488,-0.1 2.949,0.439 4.014,1.483 0.43,0.483 0.7393,1.0612 0.9025,1.687 0.1633,0.6258 0.1758,1.2814 0.0365,1.913 z"
     fill="#828190"
     id="path4" />
  <path
     d="m 4.0383018,13.003682 c -1.01305,-0.8536 -1.74322,-1.9946 -2.094,-3.2720005 1.33926,-0.0614 2.60393,-0.6342 3.53342,-1.6004 0.92948,-0.9661 1.45298,-2.252 1.46258,-3.5926 -0.0221,-0.8773 -0.23,-1.74 -0.61,-2.531 0.5654,-0.1738 1.1535,-0.2621 1.745,-0.262 0.9512,0.0036 1.8899,0.2165 2.7496002,0.6237 0.8596,0.4071 1.619,0.9986 2.2244,1.7323 0.457,0.576 0.73,1.275 0.786,2.008 l 1.57,-1.091 c -0.1338,-0.7432 -0.4654,-1.4365 -0.96,-2.007 -0.774,-0.9518 -1.7527,-1.7167 -2.8631,-2.23799998 -1.1105,-0.5213 -2.3242002,-0.7855 -3.5509002,-0.77299999881 -1.662,-0.0222000012 -3.28582,0.49849999881 -4.625,1.48299997881 0.66437,0.3882 1.1829,0.9838 1.47592,1.6954 0.29301,0.7115 0.3443,1.4995 0.14599,2.243 -0.19831,0.7435 -0.63526,1.4014 -1.2437,1.8724 -0.60845,0.4711 -1.35474,0.7294 -2.12421,0.7352 -0.57933,-0.0134 -1.14735999,-0.1631 -1.65799999,-0.437 v 0.524 c -0.03167,1.2896 0.26391,2.5663005 0.85916,3.7108005 0.59525999,1.1445 1.47076999,2.1196 2.54483999,2.8342 0.196,0.088 0.72,-1.658 0.632,-1.658 z"
     fill="#2a2a2a"
     id="path6" />
  <path
     d="m 3.8753018,12.840682 c 0.60636,-1.1714 1.51237,-2.1611 2.6257,-2.8683005 1.1134,-0.7072 2.3943,-1.1067 3.7123002,-1.1577 h 1.09 c 0.316,-0.02 0.633,0.01 0.939,0.087 0.174,-1.19 0.71,-2.3 1.538,-3.174 -0.1104,-0.5924 -0.3607,-1.1499 -0.73,-1.626 -0.6055,-0.7339 -1.3651,-1.3254 -2.2249,-1.7326 -0.8598002,-0.4071 -1.7987002,-0.62 -2.7501002,-0.6234 -0.592,0 -1.18,0.088 -1.746,0.262 0.38,0.79 0.589,1.653 0.611,2.53 -0.0093,1.3408 -0.5327,2.6269 -1.46223,3.5932 -0.92952,0.9664 -2.19434,1.5393 -3.53377,1.6008 0.33465,1.1987005 1.00415,2.2772005 1.93,3.1090005 z"
     fill="#ffffff"
     id="path8" />
  <path
     d="m 18.504302,15.621682 c 0.0881,0.0084 0.1728,0.0381 0.2469,0.0866 0.074,0.0484 0.1352,0.1142 0.1781,0.1916 0.0429,0.0774 0.0664,0.1641 0.0683,0.2525 0.0019,0.0885 -0.0178,0.1761 -0.0573,0.2553 l -2.182,5.324 h 3.273 c 0.0702,0.0027 0.1386,0.0233 0.1988,0.0597 0.0601,0.0364 0.11,0.0875 0.145,0.1485 0.035,0.0609 0.0539,0.1298 0.055,0.2001 0.0011,0.0703 -0.0157,0.1397 -0.0488,0.2017 l -0.7,1.222 -4.188,6.72 c -0.087,0.088 -0.175,0.175 -0.262,0.175 -0.1035,-0.0135 -0.1977,-0.0666 -0.263,-0.148 -0.0652,-0.0815 -0.0964,-0.1851 -0.087,-0.289 l 1.92,-5.76 h -3.84 c -0.0617,-0.0011 -0.1223,-0.0172 -0.1765,-0.0469 -0.0541,-0.0296 -0.1003,-0.072 -0.1345,-0.1234 -0.0342,-0.0514 -0.0555,-0.1104 -0.0619,-0.1718 -0.0065,-0.0614 0.0021,-0.1235 0.0249,-0.1809 l 0.436,-1.31 2.095,-6.37 c 0.0453,-0.1018 0.1184,-0.1886 0.2109,-0.2506 0.0926,-0.0619 0.2008,-0.0964 0.3121,-0.0994 l 2.793,-0.087"
     fill="#f4c53e"
     id="path10" />
  <path
     d="m 18.504302,15.621682 c 0.0881,0.0084 0.1728,0.0381 0.2469,0.0866 0.074,0.0484 0.1351,0.1142 0.1781,0.1916 0.0429,0.0774 0.0663,0.1641 0.0683,0.2525 0.0019,0.0885 -0.0178,0.1761 -0.0573,0.2553 l -2.182,5.324 h 3.273 c 0.0702,0.0027 0.1386,0.0233 0.1988,0.0597 0.0601,0.0364 0.11,0.0875 0.145,0.1485 0.035,0.0609 0.0539,0.1298 0.055,0.2001 0.0011,0.0703 -0.0157,0.1397 -0.0488,0.2017 l -0.7,1.222 -4.188,6.72 c -0.087,0.088 -0.175,0.175 -0.262,0.175 -0.1035,-0.0135 -0.1977,-0.0666 -0.263,-0.148 -0.0652,-0.0815 -0.0964,-0.1851 -0.087,-0.289 l 1.92,-5.76 h -3.84 c -0.0618,-0.0011 -0.1223,-0.0172 -0.1765,-0.0469 -0.0542,-0.0296 -0.1003,-0.072 -0.1345,-0.1234 -0.0342,-0.0514 -0.0555,-0.1104 -0.0619,-0.1718 -0.0065,-0.0614 0.0021,-0.1235 0.0249,-0.1809 l 0.436,-1.31 2.095,-6.37 c 0.0453,-0.1017 0.1184,-0.1886 0.2109,-0.2505 0.0926,-0.062 0.2008,-0.0965 0.3121,-0.0995 l 2.793,-0.087 z m -0.044,-1.745 h -2.749 c -0.4586,0.0053 -0.9047,0.1502 -1.2789,0.4153 -0.3743,0.2651 -0.6589,0.6379 -0.8161,1.0687 l -2.094,6.37 -0.436,1.266 c -0.1342,0.3137 -0.1807,0.658 -0.1348,0.9961 0.046,0.3381 0.1828,0.6574 0.3958,0.9239 0.394,0.582 1.043,0.94 1.746,0.96 h 1.309 l -1.091,3.49 c -0.18,0.621 -0.085,1.289 0.262,1.834 0.385,0.534 1,0.857 1.658,0.872 0.3492,0.0057 0.6939,-0.0799 1,-0.2483 0.306,-0.1683 0.5628,-0.4137 0.745,-0.7117 l 4.19,-6.72 0.698,-1.221 c 0.1758,-0.3212 0.2679,-0.6814 0.2679,-1.0475 0,-0.3661 -0.0921,-0.7263 -0.2679,-1.0475 -0.1867,-0.3233 -0.4533,-0.5933 -0.7743,-0.7842 -0.3209,-0.1908 -0.6854,-0.2961 -1.0587,-0.3058 h -0.61 l 1.09,-2.88 c 0.376,-0.71 0.376,-1.56 0,-2.27 -0.224,-0.3188 -0.5263,-0.5746 -0.8778,-0.7427 -0.3515,-0.1682 -0.7404,-0.243 -1.1292,-0.2173 z"
     fill="#2a2a2a"
     id="path12" />
  <path
     d="m 22.378002,28.756082 c 0.1164,1.4039 1.7412,2.2353 3.0802,1.7978 3.4205,-1.1177 1.6564,-6.0572 1.6564,-6.0572 0,0 -4.9796,1.3279 -4.7366,4.2594 z"
     fill="#0f79be"
     id="path14" />
</svg>
