<?xml version="1.0" encoding="UTF-8" standalone="no"?>
<svg
   xmlns:dc="http://purl.org/dc/elements/1.1/"
   xmlns:cc="http://creativecommons.org/ns#"
   xmlns:rdf="http://www.w3.org/1999/02/22-rdf-syntax-ns#"
   xmlns:svg="http://www.w3.org/2000/svg"
   xmlns="http://www.w3.org/2000/svg"
   xmlns:sodipodi="http://sodipodi.sourceforge.net/DTD/sodipodi-0.dtd"
   xmlns:inkscape="http://www.inkscape.org/namespaces/inkscape"
   width="40.859917"
   height="36.877983"
   viewBox="0 0 40.859917 36.877983"
   fill="none"
   version="1.1"
   id="svg14"
   sodipodi:docname="29.svg"
   inkscape:version="1.0.1 (1.0.1+r74)">
  <metadata
     id="metadata20">
    <rdf:RDF>
      <cc:Work
         rdf:about="">
        <dc:format>image/svg+xml</dc:format>
        <dc:type
           rdf:resource="http://purl.org/dc/dcmitype/StillImage" />
      </cc:Work>
    </rdf:RDF>
  </metadata>
  <defs
     id="defs18" />
  <sodipodi:namedview
     pagecolor="#ffffff"
     bordercolor="#666666"
     borderopacity="1"
     objecttolerance="10"
     gridtolerance="10"
     guidetolerance="10"
     inkscape:pageopacity="0"
     inkscape:pageshadow="2"
     inkscape:window-width="748"
     inkscape:window-height="480"
     id="namedview16"
     showgrid="false"
     inkscape:zoom="11.916667"
     inkscape:cx="17"
     inkscape:cy="17.9176"
     inkscape:window-x="0"
     inkscape:window-y="0"
     inkscape:window-maximized="0"
     inkscape:current-layer="svg14" />
  <path
     d="M 26.643,13.9177 C 25.7205,13.8399 24.7916,13.8978 23.886,14.0897 23.3829,12.4375 22.3525,10.9955 20.9525,9.9842 19.5524,8.9729 17.8596,8.448 16.133,8.4897 c -3.877,0 -6.893,2.413 -7.323,5.514 C 8.5074,13.9265 8.1946,13.8975 7.883,13.9177 H 6.806 C 3.016,14.1757 0,16.9327 0,20.2927 c 0,3.533 3.231,6.376 7.323,6.376 H 23.8 c 3.963,0 8.099,-1.551 8.099,-6.979 0.0058,-1.4455 -0.531,-2.8406 -1.5042,-3.9093 -0.9733,-1.0688 -2.3121,-1.7335 -3.7518,-1.8627 z m 3.533,6.548 c -0.431,4.049 -4.739,4.394 -6.031,4.394 H 7.173 c -1.637,0 -5.083,-1.379 -5.385,-3.964 C 1.72319,20.2782 1.7853,19.654 1.9705,19.0614 2.15571,18.4688 2.46011,17.9203 2.865,17.4497 3.3126,16.9171 3.8645,16.4818 4.4867,16.1707 5.109,15.8595 5.7884,15.6792 6.483,15.6407 h 0.883 c 0.6335,-0.0255 1.263,0.1115 1.8285,0.398 0.5656,0.2866 1.0484,0.7131 1.4025,1.239 0,0 0.173,0.172 0.173,0.258 0.177,0.363 0.543,0.596 0.947,0.604 0.3,0.025 0.58,-0.15 0.69,-0.431 0.0749,-0.2599 0.0742,-0.5358 -0.0022,-0.7953 -0.0763,-0.2595 -0.2251,-0.4918 -0.4288,-0.6697 -0.431,-0.43 -0.69,-0.603 -0.862,-0.775 -0.172,-0.173 -0.344,-0.259 -0.43,-0.517 0.1554,-1.3073 0.7939,-2.5092 1.79,-3.3699 0.9961,-0.8608 2.278,-1.318 3.594,-1.2821 1.3706,-0.0311 2.7132,0.3912 3.8193,1.2012 1.106,0.8101 1.9137,1.9626 2.2977,3.2788 -1.0151,0.4201 -1.9007,1.102 -2.5665,1.9759 -0.6658,0.874 -1.088,1.9088 -1.2235,2.9991 -0.173,0.775 0.085,1.378 0.688,1.465 h 0.259 c 0.603,0 0.861,-0.776 0.948,-1.379 0.2005,-1.0634 0.7065,-2.0453 1.4562,-2.8256 0.7496,-0.7804 1.7104,-1.3254 2.7648,-1.5684 h 0.775 c 0.7266,-0.0488 1.4554,0.0565 2.1385,0.3089 0.6831,0.2525 1.3052,0.6465 1.8255,1.1561 0.4302,0.4757 0.7406,1.0473 0.9053,1.6672 0.1647,0.6199 0.179,1.2702 0.0417,1.8968 z"
     fill="#2a2a2a"
     id="path2" />
  <path
     d="m 30.2129,20.4756 c -0.431,4.05 -4.739,4.394 -6.031,4.394 H 7.2099 c -1.637,0 -5.08301,-1.378 -5.38501,-3.963 C 1.76008,20.2892 1.82219,19.665 2.00739,19.0724 2.1926,18.4798 2.497,17.9313 2.90189,17.4606 3.3494,16.9278 3.9013,16.4924 4.5235,16.1811 5.1458,15.8698 5.8252,15.6893 6.5199,15.6506 h 0.883 c 0.6336,-0.0254 1.2631,0.1118 1.8287,0.3985 0.5655,0.2868 1.0483,0.7135 1.4023,1.2395 0,0 0.173,0.172 0.173,0.258 0.177,0.363 0.543,0.596 0.947,0.603 0.3,0.025 0.58,-0.15 0.69,-0.43 0.0749,-0.2599 0.0742,-0.5357 -0.0022,-0.7952 -0.0763,-0.2595 -0.2251,-0.4918 -0.4288,-0.6698 -0.431,-0.43 -0.69,-0.603 -0.862,-0.775 -0.172,-0.173 -0.344,-0.259 -0.43,-0.517 0.1552,-1.3074 0.7935,-2.5096 1.7897,-3.3705 0.9962,-0.8609 2.2782,-1.3183 3.5943,-1.2825 1.3706,-0.031 2.7132,0.3912 3.8192,1.2013 1.1061,0.8101 1.9138,1.9626 2.2978,3.2787 -1.0153,0.4203 -1.901,1.1023 -2.5668,1.9764 -0.6657,0.8741 -1.0878,1.9092 -1.2232,2.9996 -0.173,0.775 0.085,1.378 0.688,1.464 h 0.259 c 0.603,0 0.861,-0.775 0.948,-1.378 0.2005,-1.0633 0.7065,-2.0452 1.4561,-2.8255 0.7497,-0.7804 1.7104,-1.3254 2.7649,-1.5685 h 0.775 c 0.7266,-0.0487 1.4554,0.0565 2.1385,0.309 0.6831,0.2525 1.3052,0.6464 1.8255,1.156 0.86,0.967 1.205,2.289 0.926,3.553 z"
     fill="#828190"
     id="path4" />
  <path
     d="m 14.991,20.6376 c 0.0868,0.0084 0.1703,0.0378 0.2432,0.0856 0.073,0.0478 0.1332,0.1127 0.1755,0.1889 0.0423,0.0763 0.0654,0.1617 0.0674,0.2489 0.002,0.0872 -0.0173,0.1735 -0.0561,0.2516 l -2.153,5.256 h 3.23 c 0.1079,0.0052 0.2096,0.0517 0.2841,0.1299 0.0745,0.0782 0.116,0.1821 0.1159,0.2901 -0.0068,0.0639 -0.0255,0.126 -0.055,0.183 l -0.689,1.206 -4.135,6.634 c -0.086,0.086 -0.173,0.172 -0.259,0.172 -0.1017,-0.0135 -0.1943,-0.0658 -0.2584,-0.1459 -0.0641,-0.0801 -0.0947,-0.1819 -0.0856,-0.2841 l 1.895,-5.687 H 9.521 C 9.4714,29.1668 9.4223,29.1571 9.3764,29.1382 9.3306,29.1193 9.2889,29.0916 9.2538,29.0566 9.2187,29.0215 9.1908,28.9799 9.1718,28.9341 9.1528,28.8883 9.143,28.8392 9.143,28.7896 c -0.0061,-0.0464 -0.0061,-0.0935 0,-0.14 l 0.431,-1.292 2.1,-6.29 c 0.0449,-0.1003 0.1173,-0.1858 0.2088,-0.2467 0.0915,-0.0609 0.1983,-0.0946 0.3082,-0.0973 l 2.714,-0.086"
     fill="#f4c53e"
     id="path6" />
  <path
     d="m 14.991,20.6376 c 0.0868,0.0084 0.1703,0.0378 0.2432,0.0856 0.073,0.0478 0.1332,0.1127 0.1755,0.1889 0.0423,0.0763 0.0654,0.1617 0.0674,0.2489 0.002,0.0872 -0.0173,0.1735 -0.0561,0.2516 l -2.153,5.256 h 3.23 c 0.1079,0.0052 0.2097,0.0517 0.2841,0.1299 0.0745,0.0782 0.116,0.1821 0.1159,0.2901 -0.0068,0.0639 -0.0255,0.126 -0.055,0.183 l -0.689,1.206 -4.135,6.634 c -0.086,0.086 -0.173,0.172 -0.259,0.172 -0.1017,-0.0135 -0.1943,-0.0657 -0.2584,-0.1459 -0.0641,-0.0801 -0.0947,-0.1819 -0.0856,-0.2841 l 1.895,-5.687 H 9.521 C 9.4714,29.1668 9.4223,29.1571 9.3764,29.1382 9.3306,29.1193 9.2889,29.0916 9.2538,29.0566 9.2187,29.0216 9.1908,28.9799 9.1718,28.9341 9.1528,28.8883 9.143,28.8392 9.143,28.7896 c -0.0061,-0.0464 -0.0061,-0.0935 0,-0.14 l 0.431,-1.292 2.1,-6.29 c 0.0449,-0.1003 0.1173,-0.1858 0.2088,-0.2467 0.0915,-0.0608 0.1983,-0.0946 0.3082,-0.0973 l 2.714,-0.086 z m -0.086,-1.723 h -2.67 c -0.4528,0.0053 -0.8933,0.1482 -1.2629,0.4099 -0.3696,0.2617 -0.6508,0.6298 -0.8061,1.0551 l -2.067,6.289 -0.431,1.249 c -0.27,0.631 -0.17,1.36 0.258,1.895 0.389,0.575 1.03,0.928 1.724,0.948 h 1.292 l -1.077,3.446 c -0.0924,0.3022 -0.1171,0.621 -0.0726,0.9338 0.0446,0.3128 0.1575,0.6119 0.3306,0.8762 0.38,0.528 0.986,0.848 1.637,0.861 0.3451,0.0068 0.6859,-0.0772 0.9883,-0.2436 0.3023,-0.1664 0.5557,-0.4093 0.7347,-0.7044 l 4.136,-6.634 0.689,-1.206 c 0.1733,-0.3169 0.2641,-0.6723 0.2641,-1.0335 0,-0.3612 -0.0908,-0.7166 -0.2641,-1.0335 -0.1843,-0.3194 -0.4475,-0.5862 -0.7644,-0.7748 -0.3169,-0.1885 -0.6769,-0.2926 -1.0456,-0.3022 h -0.602 l 1.077,-2.843 c 0.1803,-0.3458 0.2744,-0.73 0.2744,-1.12 0,-0.3899 -0.0941,-0.7741 -0.2744,-1.12 -0.2218,-0.3142 -0.5204,-0.5664 -0.8674,-0.7323 -0.347,-0.166 -0.7307,-0.2402 -1.1146,-0.2157 z m 16.305,1.561 c -0.259,0 -0.345,-1.636 -0.345,-1.636 0.7012,-0.5693 1.2608,-1.2937 1.6345,-2.116 0.3738,-0.8224 0.5516,-1.7202 0.5195,-2.623 -0.0026,-1.6636 -0.6631,-3.2586 -1.8374,-4.437 -1.1743,-1.1784 -2.767,-1.8445 -4.4306,-1.853 -0.9481,0.0018 -1.8834,0.22 -2.7343,0.6382 -0.8509,0.4182 -1.5951,1.0253 -2.1757,1.7748 -0.26,0.345 -0.604,0.948 -0.948,0.69 -0.173,-0.173 -0.776,-0.26 -0.862,-0.69 -0.086,-0.43 0.43,-0.861 0.517,-1.077 0.7489,-0.9492 1.7024,-1.7172 2.7894,-2.2467 1.087,-0.5295 2.2795,-0.8068 3.4886,-0.8113 2.0852,-0.0058 4.0878,0.8147 5.5693,2.282 1.4816,1.4673 2.3214,3.4619 2.3357,5.547 -0.009,1.1847 -0.2758,2.3531 -0.7817,3.4243 -0.506,1.0711 -1.2391,2.0193 -2.1483,2.7787 -0.0697,0.0958 -0.1579,0.1766 -0.2594,0.2376 -0.1015,0.061 -0.2143,0.1009 -0.3316,0.1174 z M 26.805,4.5376 c -0.2286,0 -0.4479,-0.0908 -0.6095,-0.2524 C 26.0338,4.1235 25.943,3.90426 25.943,3.67564 v -2.843 C 25.9506,0.60924 26.0447,0.39753 26.2054,0.24218 26.3662,0.08683 26.581,0 26.8045,0 c 0.2235,0 0.4383,0.08683 0.5991,0.24218 0.1607,0.15535 0.2548,0.36706 0.2624,0.59046 v 2.843 C 27.6408,3.89541 27.5421,4.1002 27.3857,4.2567 27.2294,4.4132 27.0247,4.5122 26.805,4.5376 Z m 13.193,10.457 h -2.844 c -0.2284,-2e-4 -0.4474,-0.0912 -0.6089,-0.2528 -0.1614,-0.1616 -0.2521,-0.3807 -0.2521,-0.6092 -0.0058,-0.1074 0.0097,-0.215 0.0455,-0.3164 0.0358,-0.1015 0.0913,-0.1949 0.1633,-0.2749 0.072,-0.08 0.1591,-0.145 0.2563,-0.1912 0.0971,-0.0463 0.2024,-0.073 0.3099,-0.0785 h 2.93 c 0.475,0 0.86,0.386 0.86,0.861 0.0073,0.1061 -0.0063,0.2126 -0.0402,0.3134 -0.0339,0.1008 -0.0874,0.1939 -0.1574,0.274 -0.0699,0.08 -0.155,0.1455 -0.2503,0.1927 -0.0953,0.0471 -0.199,0.075 -0.3051,0.0819 h -0.108 z m -5.86,-7.442 C 33.9112,7.5492 33.6949,7.4565 33.536,7.2946 33.4589,7.2176 33.3977,7.1261 33.356,7.0253 33.3143,6.9246 33.2928,6.8167 33.2928,6.7076 c 0,-0.109 0.0215,-0.2169 0.0632,-0.3177 0.0417,-0.1007 0.1029,-0.1922 0.18,-0.2693 l 1.981,-1.981 c 0.0622,-0.0933 0.1421,-0.1735 0.2353,-0.236 0.0932,-0.06247 0.1978,-0.10597 0.3078,-0.12803 0.11,-0.02205 0.2232,-0.02222 0.3333,-5.1e-4 0.11,0.02172 0.2147,0.0649 0.3081,0.12708 0.0934,0.06216 0.1736,0.14216 0.2361,0.23536 0.0624,0.0931 0.1059,0.1977 0.128,0.3077 0.022,0.11 0.0222,0.2233 5e-4,0.3333 -0.0217,0.1101 -0.0649,0.2148 -0.1271,0.3081 -0.055,0.0873 -0.1288,0.1611 -0.216,0.216 l -1.981,1.981 c -0.1604,0.162 -0.3754,0.2583 -0.603,0.27 z m -14.732,0 C 19.1789,7.5495 18.9622,7.4567 18.803,7.2946 L 16.822,5.3026 C 16.6663,5.1403 16.5794,4.9241 16.5794,4.6991 c 0,-0.2249 0.0869,-0.4411 0.2426,-0.6035 0.079,-0.0795 0.173,-0.1426 0.2764,-0.18565 0.1035,-0.04306 0.2145,-0.06523 0.3266,-0.06523 0.1121,0 0.2231,0.02217 0.3266,0.06523 C 17.8551,3.953 17.949,4.0161 18.028,4.0956 l 1.982,1.982 c 0.1513,0.1515 0.2363,0.3569 0.2363,0.571 0,0.2142 -0.085,0.4195 -0.2363,0.571 -0.0699,0.0967 -0.1603,0.1767 -0.2647,0.2342 -0.1044,0.0576 -0.2203,0.0913 -0.3393,0.0988 z m 16.714,16.715 c -0.2274,-0.0037 -0.4442,-0.0971 -0.603,-0.26 l -1.981,-1.98 c -0.1362,-0.1794 -0.1968,-0.405 -0.1688,-0.6285 0.028,-0.2236 0.1425,-0.4272 0.3188,-0.5675 0.1511,-0.1261 0.3417,-0.1953 0.5385,-0.1953 0.1968,0 0.3874,0.0692 0.5385,0.1953 l 1.982,1.981 c 0.1513,0.1515 0.2363,0.3569 0.2363,0.571 0,0.2142 -0.085,0.4195 -0.2363,0.571 -0.0731,0.0967 -0.1675,0.1752 -0.2759,0.2293 -0.1085,0.0541 -0.2279,0.0824 -0.3491,0.0827 z"
     fill="#2a2a2a"
     id="path8" />
  <path
     d="m 23.886,14.1007 c 0.9051,-0.1954 1.834,-0.2571 2.757,-0.183 1.1573,0.0942 2.2581,0.5397 3.1551,1.2769 0.897,0.7373 1.5473,1.731 1.8639,2.8481 0.9176,-1.109 1.4,-2.5143 1.357,-3.953 C 33.0161,12.4262 32.3555,10.8314 31.1812,9.6533 30.007,8.4751 28.4144,7.8091 26.751,7.8007 25.8029,7.8023 24.8678,8.0204 24.0168,8.4384 23.1659,8.8564 22.4217,9.4633 21.841,10.2127 l -0.216,0.302 c 1.0784,0.9567 1.8626,2.2004 2.261,3.586 z"
     fill="#ef9d33"
     id="path10" />
  <path
     d="m 19.078,33.677 c 0.1164,1.4039 1.7412,2.2353 3.0802,1.7978 3.4205,-1.1177 1.6564,-6.0572 1.6564,-6.0572 0,0 -4.9796,1.3279 -4.7366,4.2594 z"
     fill="#0f79be"
     id="path12" />
</svg>
