<?xml version="1.0" encoding="UTF-8" standalone="no"?>
<svg
   xmlns:dc="http://purl.org/dc/elements/1.1/"
   xmlns:cc="http://creativecommons.org/ns#"
   xmlns:rdf="http://www.w3.org/1999/02/22-rdf-syntax-ns#"
   xmlns:svg="http://www.w3.org/2000/svg"
   xmlns="http://www.w3.org/2000/svg"
   xmlns:sodipodi="http://sodipodi.sourceforge.net/DTD/sodipodi-0.dtd"
   xmlns:inkscape="http://www.inkscape.org/namespaces/inkscape"
   width="40.859879"
   height="26.668699"
   viewBox="0 0 40.859879 26.668699"
   fill="none"
   version="1.1"
   id="svg10"
   sodipodi:docname="3.svg"
   inkscape:version="1.0.1 (1.0.1+r74)">
  <metadata
     id="metadata16">
    <rdf:RDF>
      <cc:Work
         rdf:about="">
        <dc:format>image/svg+xml</dc:format>
        <dc:type
           rdf:resource="http://purl.org/dc/dcmitype/StillImage" />
      </cc:Work>
    </rdf:RDF>
  </metadata>
  <defs
     id="defs14" />
  <sodipodi:namedview
     pagecolor="#ffffff"
     bordercolor="#666666"
     borderopacity="1"
     objecttolerance="10"
     gridtolerance="10"
     guidetolerance="10"
     inkscape:pageopacity="0"
     inkscape:pageshadow="2"
     inkscape:window-width="748"
     inkscape:window-height="480"
     id="namedview12"
     showgrid="false"
     inkscape:zoom="11.916667"
     inkscape:cx="17"
     inkscape:cy="17.9176"
     inkscape:window-x="0"
     inkscape:window-y="0"
     inkscape:window-maximized="0"
     inkscape:current-layer="svg10" />
  <path
     d="m 31.21,20.4756 c -0.259,0 -0.345,-1.636 -0.345,-1.636 0.7012,-0.5693 1.2608,-1.2937 1.6345,-2.116 0.3738,-0.8224 0.5516,-1.7202 0.5195,-2.623 C 33.0164,12.437 32.3559,10.842 31.1816,9.6636 30.0073,8.4852 28.4146,7.8191 26.751,7.8106 25.803,7.8131 24.868,8.0317 24.0172,8.4499 23.1664,8.868 22.4221,9.4746 21.841,10.2236 c -0.26,0.345 -0.604,0.948 -0.948,0.69 -0.173,-0.173 -0.776,-0.26 -0.862,-0.69 -0.086,-0.43 0.43,-0.861 0.517,-1.077 0.7489,-0.9492 1.7024,-1.7172 2.7894,-2.2467 1.087,-0.5295 2.2795,-0.8068 3.4886,-0.8113 2.0852,-0.0058 4.0878,0.8147 5.5693,2.282 1.4816,1.4673 2.3214,3.4619 2.3357,5.547 -0.009,1.1847 -0.2758,2.3531 -0.7817,3.4243 -0.506,1.0711 -1.2391,2.0193 -2.1483,2.7787 -0.0697,0.0958 -0.1579,0.1766 -0.2594,0.2376 -0.1016,0.061 -0.2143,0.1009 -0.3316,0.1174 z M 26.805,4.5376 c -0.2286,0 -0.4479,-0.0908 -0.6095,-0.2524 C 26.0338,4.1235 25.943,3.90426 25.943,3.67564 v -2.843 C 25.9506,0.60924 26.0447,0.39753 26.2054,0.24218 26.3662,0.08683 26.581,0 26.8045,0 c 0.2235,0 0.4383,0.08683 0.5991,0.24218 0.1607,0.15535 0.2548,0.36706 0.2624,0.59046 v 2.843 C 27.6391,3.89475 27.5398,4.0986 27.3838,4.2548 27.2278,4.411 27.0241,4.5105 26.805,4.5376 Z m 13.193,10.457 h -2.844 c -0.2284,-2e-4 -0.4474,-0.0912 -0.6089,-0.2528 -0.1614,-0.1616 -0.2521,-0.3807 -0.2521,-0.6092 -0.0058,-0.1074 0.0097,-0.215 0.0455,-0.3164 0.0358,-0.1015 0.0913,-0.1949 0.1633,-0.2749 0.072,-0.08 0.1591,-0.145 0.2562,-0.1912 0.0972,-0.0463 0.2025,-0.073 0.31,-0.0785 h 2.93 c 0.475,0 0.86,0.386 0.86,0.861 0.0073,0.107 -0.0067,0.2143 -0.0413,0.3158 -0.0346,0.1015 -0.089,0.195 -0.1601,0.2753 -0.0711,0.0802 -0.1575,0.1455 -0.2541,0.192 -0.0966,0.0465 -0.2014,0.0734 -0.3085,0.0789 h -0.097 z m -5.86,-7.442 C 34.0253,7.5534 33.9137,7.5308 33.8101,7.4864 33.7065,7.442 33.6132,7.3768 33.536,7.2946 33.4589,7.2176 33.3977,7.1261 33.356,7.0253 33.3143,6.9246 33.2928,6.8167 33.2928,6.7076 c 0,-0.109 0.0215,-0.2169 0.0632,-0.3177 0.0417,-0.1007 0.1029,-0.1922 0.18,-0.2693 l 1.981,-1.981 c 0.0622,-0.0933 0.1421,-0.1735 0.2353,-0.236 0.0932,-0.06247 0.1978,-0.10597 0.3078,-0.12803 0.11,-0.02205 0.2232,-0.02222 0.3333,-5.1e-4 0.11,0.02172 0.2147,0.0649 0.3081,0.12708 0.0934,0.06216 0.1736,0.14216 0.236,0.23536 0.0625,0.0931 0.106,0.1977 0.1281,0.3077 0.022,0.11 0.0222,0.2233 5e-4,0.3333 -0.0217,0.1101 -0.0649,0.2148 -0.1271,0.3081 -0.0578,0.085 -0.1311,0.1582 -0.216,0.216 l -1.981,1.981 c -0.1604,0.1619 -0.3754,0.2582 -0.603,0.27 z m -14.732,0 C 19.2931,7.5535 19.1813,7.531 19.0775,7.4866 18.9738,7.4422 18.8803,7.3769 18.803,7.2946 L 16.822,5.3026 C 16.6663,5.1403 16.5794,4.9241 16.5794,4.6991 c 0,-0.2249 0.0869,-0.4411 0.2426,-0.6035 0.079,-0.0795 0.173,-0.1426 0.2764,-0.18565 0.1035,-0.04306 0.2145,-0.06523 0.3266,-0.06523 0.1121,0 0.2231,0.02217 0.3266,0.06523 C 17.8551,3.953 17.949,4.0161 18.028,4.0956 l 1.982,1.982 c 0.0764,0.0752 0.1371,0.1649 0.1786,0.2638 0.0414,0.0989 0.0628,0.205 0.0628,0.3122 0,0.1073 -0.0214,0.2134 -0.0628,0.3123 -0.0415,0.0989 -0.1022,0.1885 -0.1786,0.2637 -0.0709,0.0948 -0.1617,0.1729 -0.2661,0.2287 -0.1044,0.0558 -0.2197,0.088 -0.3379,0.0943 z m 16.714,16.715 c -0.113,7e-4 -0.2249,-0.0221 -0.3287,-0.0669 -0.1038,-0.0447 -0.1972,-0.1105 -0.2743,-0.1931 l -1.981,-1.98 c -0.1362,-0.1794 -0.1968,-0.405 -0.1688,-0.6285 0.028,-0.2236 0.1425,-0.4272 0.3188,-0.5675 0.1511,-0.1261 0.3417,-0.1953 0.5385,-0.1953 0.1968,0 0.3874,0.0692 0.5385,0.1953 l 1.982,1.981 c 0.0766,0.0753 0.1374,0.165 0.1789,0.264 0.0416,0.0989 0.063,0.2052 0.063,0.3125 0,0.1074 -0.0214,0.2136 -0.063,0.3126 -0.0415,0.099 -0.1023,0.1887 -0.1789,0.2639 -0.0742,0.0947 -0.1691,0.171 -0.2775,0.2232 -0.1084,0.0522 -0.2272,0.0788 -0.3475,0.0778 z"
     fill="#2a2a2a"
     id="path2" />
  <path
     d="m 26.643,13.9177 c -0.9225,-0.077 -1.8512,-0.0191 -2.757,0.172 C 23.3829,12.4375 22.3525,10.9955 20.9525,9.9842 19.5524,8.9729 17.8596,8.448 16.133,8.4897 c -3.877,0 -6.893,2.413 -7.323,5.514 C 8.5074,13.9265 8.1946,13.8975 7.883,13.9177 H 6.806 C 3.016,14.1757 0,16.9327 0,20.2927 c 0,3.533 3.231,6.376 7.323,6.376 H 23.8 c 3.963,0 8.099,-1.551 8.099,-6.979 0.0033,-1.4448 -0.5344,-2.8385 -1.5071,-3.9067 -0.9728,-1.0682 -2.3101,-1.7337 -3.7489,-1.8653 z m 3.533,6.548 c -0.431,4.049 -4.739,4.394 -6.031,4.394 H 7.173 c -1.637,0 -5.083,-1.379 -5.385,-3.964 C 1.72319,20.2782 1.7853,19.654 1.9705,19.0614 2.15571,18.4688 2.46011,17.9203 2.865,17.4497 3.3126,16.9171 3.8645,16.4818 4.4867,16.1707 5.109,15.8595 5.7884,15.6792 6.483,15.6407 h 0.883 c 0.6336,-0.0265 1.2635,0.1101 1.8292,0.3967 0.5657,0.2867 1.0484,0.7137 1.4018,1.2403 0,0 0.173,0.172 0.173,0.258 0.177,0.363 0.543,0.596 0.947,0.604 0.3,0.025 0.58,-0.15 0.69,-0.431 0.0749,-0.2599 0.0742,-0.5358 -0.0022,-0.7953 -0.0763,-0.2595 -0.2251,-0.4918 -0.4288,-0.6697 -0.431,-0.43 -0.69,-0.603 -0.862,-0.775 -0.172,-0.173 -0.344,-0.259 -0.43,-0.517 0.1554,-1.3073 0.7939,-2.5092 1.79,-3.3699 0.9961,-0.8607 2.278,-1.318 3.594,-1.2821 1.3706,-0.0311 2.7132,0.3912 3.8193,1.2012 1.106,0.8101 1.9137,1.9626 2.2977,3.2788 -1.0151,0.4201 -1.9007,1.102 -2.5665,1.9759 -0.6658,0.874 -1.088,1.9088 -1.2235,2.9991 -0.173,0.775 0.085,1.378 0.688,1.465 h 0.259 c 0.603,0 0.861,-0.776 0.948,-1.379 0.2005,-1.0634 0.7065,-2.0453 1.4562,-2.8256 0.7496,-0.7804 1.7104,-1.3254 2.7648,-1.5684 h 0.775 c 0.7266,-0.0482 1.4552,0.0574 2.1382,0.3098 0.683,0.2525 1.3052,0.6461 1.8258,1.1552 0.4302,0.4757 0.7406,1.0473 0.9053,1.6672 0.1647,0.6199 0.179,1.2702 0.0417,1.8968 z"
     fill="#2a2a2a"
     id="path4" />
  <path
     d="m 30.2129,20.4756 c -0.431,4.05 -4.739,4.394 -6.031,4.394 H 7.2099 c -1.637,0 -5.08301,-1.378 -5.38501,-3.963 C 1.76008,20.2892 1.82219,19.665 2.00739,19.0724 2.1926,18.4798 2.497,17.9313 2.90189,17.4606 3.3494,16.9278 3.9013,16.4924 4.5235,16.1811 5.1458,15.8698 5.8252,15.6893 6.5199,15.6506 h 0.883 c 0.6337,-0.0263 1.2636,0.1104 1.8293,0.3972 0.5658,0.2868 1.0484,0.7141 1.4017,1.2408 0,0 0.173,0.172 0.173,0.258 0.177,0.363 0.543,0.596 0.947,0.603 0.3,0.025 0.58,-0.15 0.69,-0.43 0.0749,-0.2599 0.0742,-0.5357 -0.0022,-0.7952 -0.0763,-0.2595 -0.2251,-0.4918 -0.4288,-0.6698 -0.431,-0.43 -0.69,-0.603 -0.862,-0.775 -0.172,-0.173 -0.344,-0.259 -0.43,-0.517 0.1552,-1.3074 0.7935,-2.5096 1.7897,-3.3705 0.9962,-0.8609 2.2782,-1.3183 3.5943,-1.2825 1.3706,-0.031 2.7132,0.3912 3.8192,1.2013 1.1061,0.8101 1.9138,1.9626 2.2978,3.2787 -1.0153,0.4203 -1.901,1.1023 -2.5668,1.9764 -0.6657,0.8741 -1.0878,1.9092 -1.2232,2.9996 -0.173,0.775 0.085,1.378 0.688,1.464 h 0.259 c 0.603,0 0.861,-0.775 0.948,-1.378 0.2005,-1.0633 0.7065,-2.0452 1.4561,-2.8255 0.7497,-0.7804 1.7104,-1.3254 2.7649,-1.5685 h 0.775 c 0.7266,-0.0481 1.4552,0.0575 2.1382,0.3099 0.683,0.2524 1.3051,0.646 1.8258,1.1551 0.86,0.967 1.205,2.289 0.926,3.553 z"
     fill="#ffffff"
     id="path6" />
  <path
     d="m 23.886,14.1007 c 0.9052,-0.1951 1.834,-0.2568 2.757,-0.183 1.1573,0.0942 2.2581,0.5397 3.1551,1.2769 0.897,0.7373 1.5473,1.731 1.8639,2.8481 0.9159,-1.11 1.398,-2.5146 1.357,-3.953 C 33.0161,12.4262 32.3555,10.8314 31.1812,9.6533 30.007,8.4751 28.4144,7.8091 26.751,7.8007 25.8031,7.803 24.8682,8.0215 24.0173,8.4394 23.1665,8.8574 22.4222,9.4638 21.841,10.2127 l -0.216,0.302 c 1.0766,0.9583 1.8604,2.2014 2.261,3.586 z"
     fill="#ef9d33"
     id="path8" />
</svg>
