<?xml version="1.0" encoding="UTF-8" standalone="no"?>
<svg
   xmlns:dc="http://purl.org/dc/elements/1.1/"
   xmlns:cc="http://creativecommons.org/ns#"
   xmlns:rdf="http://www.w3.org/1999/02/22-rdf-syntax-ns#"
   xmlns:svg="http://www.w3.org/2000/svg"
   xmlns="http://www.w3.org/2000/svg"
   xmlns:sodipodi="http://sodipodi.sourceforge.net/DTD/sodipodi-0.dtd"
   xmlns:inkscape="http://www.inkscape.org/namespaces/inkscape"
   width="32.582047"
   height="28.998774"
   viewBox="0 0 32.582047 28.998774"
   fill="none"
   version="1.1"
   id="svg12"
   sodipodi:docname="30.svg"
   inkscape:version="1.0.1 (1.0.1+r74)">
  <metadata
     id="metadata18">
    <rdf:RDF>
      <cc:Work
         rdf:about="">
        <dc:format>image/svg+xml</dc:format>
        <dc:type
           rdf:resource="http://purl.org/dc/dcmitype/StillImage" />
      </cc:Work>
    </rdf:RDF>
  </metadata>
  <defs
     id="defs16" />
  <sodipodi:namedview
     pagecolor="#ffffff"
     bordercolor="#666666"
     borderopacity="1"
     objecttolerance="10"
     gridtolerance="10"
     guidetolerance="10"
     inkscape:pageopacity="0"
     inkscape:pageshadow="2"
     inkscape:window-width="748"
     inkscape:window-height="480"
     id="namedview14"
     showgrid="false"
     inkscape:zoom="11.916667"
     inkscape:cx="17"
     inkscape:cy="9.9463881"
     inkscape:window-x="0"
     inkscape:window-y="0"
     inkscape:window-maximized="0"
     inkscape:current-layer="svg12" />
  <path
     d="m 27.214,5.5463881 c -0.9422,-0.0794 -1.891,-0.0201 -2.816,0.176 -0.5139,-1.6878 -1.5664,-3.1609 -2.9967,-4.1938 -1.4303,-1.03299996 -3.1595,-1.56909996 -4.9233,-1.52619996 -3.96,0 -7.04,2.46399996 -7.48,5.63199996 -0.3088,-0.0788 -0.628,-0.1085 -0.946,-0.088 h -1.1 C 3.08,5.8103881 0,8.6263881 0,12.058388 c 0,3.608 3.3,6.512 7.48,6.512 h 16.83 c 4.048,0 8.272,-1.584 8.272,-7.128 0.0059,-1.4763999 -0.5423,-2.9012999 -1.5362,-3.9929999 -0.994,-1.0917 -2.3613,-1.7708 -3.8318,-1.903 z m 3.608,6.6879999 c -0.44,4.136 -4.84,4.488 -6.16,4.488 H 7.326 c -1.672,0 -5.192,-1.408 -5.5,-4.048 -0.06621,-0.6307 -0.00278,-1.2683 0.18638,-1.8737 0.18916,-0.6053 0.50007,-1.1654999 0.91362,-1.6462999 0.4572,-0.5442 1.021,-0.9889 1.6567,-1.3067 0.6356,-0.3178 1.3297,-0.5021 2.0393,-0.5413 h 0.902 c 0.647,-0.026 1.2899,0.114 1.8675,0.4066 0.5777,0.2927 1.0708,0.7283 1.4325,1.2654 0,0 0.176,0.176 0.176,0.264 0.089,0.1818 0.2265,0.3355 0.3973,0.4442 0.1708,0.1087 0.3683,0.1681 0.5707,0.1718 0.1491,0.0125 0.2983,-0.0236 0.4252,-0.1029 0.1269,-0.0794 0.2247,-0.1976 0.2788,-0.3371 0.0765,-0.2654 0.0758,-0.5471 -0.0021,-0.8121 -0.078,-0.265 -0.2299,-0.5022 -0.4379,-0.6839 -0.44,-0.44 -0.704,-0.616 -0.88,-0.792 -0.176,-0.176 -0.352,-0.264 -0.44,-0.528 0.1587,-1.3355 0.8109,-2.5634 1.8285,-3.4426 1.0176,-0.8792 2.3272,-1.3463 3.6715,-1.3094 1.4,-0.0318 2.7713,0.3995 3.9011,1.2269 1.1298,0.8274 1.9548,2.0047 2.3469,3.3491 -1.0371,0.4291 -1.9419,1.1255 -2.6221,2.0183 -0.6802,0.8927 -1.1115,1.9498999 -1.2499,3.0636999 -0.176,0.792 0.088,1.408 0.704,1.496 h 0.264 c 0.616,0 0.88,-0.792 0.968,-1.408 0.2048,-1.0862 0.7218,-2.0891999 1.4876,-2.8861999 0.7658,-0.7971 1.7473,-1.3537 2.8244,-1.6018 h 0.792 c 0.742,-0.0498 1.4862,0.0577 2.1838,0.3155 0.6976,0.2578 1.3329,0.6601 1.8642,1.1805 0.4397,0.4859 0.7569,1.0698 0.9253,1.7031999 0.1684,0.6333 0.183,1.2976 0.0427,1.9378 z"
     fill="#2a2a2a"
     id="path2" />
  <path
     d="m 30.822,12.245388 c -0.44,4.136 -4.84,4.488 -6.16,4.488 H 7.326 c -1.672,0 -5.19201,-1.408 -5.50001,-4.048 -0.0662,-0.6307 -0.00278,-1.2683 0.18638,-1.8736 0.18916,-0.6054 0.50007,-1.1655999 0.91362,-1.6463999 0.45721,-0.5441 1.02101,-0.9888 1.65671,-1.3067 0.6356,-0.3178 1.3297,-0.502 2.0393,-0.5413 h 0.902 c 0.647,-0.026 1.2899,0.114 1.8675,0.4067 0.5776,0.2926 1.0708,0.7282 1.4325,1.2653 0,0 0.176,0.176 0.176,0.264 0.089,0.1818 0.2265,0.3355 0.3973,0.4442 0.1708,0.1087 0.3683,0.1681 0.5707,0.1718 0.1491,0.0125 0.2983,-0.0236 0.4252,-0.1029 0.1269,-0.0793 0.2247,-0.1976 0.2788,-0.3371 0.0765,-0.2654 0.0758,-0.5471 -0.0021,-0.8121 -0.078,-0.265 -0.2299,-0.5022 -0.4379,-0.6839 -0.44,-0.44 -0.704,-0.616 -0.88,-0.792 -0.176,-0.176 -0.352,-0.264 -0.44,-0.528 0.1587,-1.3355 0.8109,-2.5633 1.8285,-3.4426 1.0176,-0.8792 2.3272,-1.3463 3.6715,-1.3094 1.4,-0.0318 2.7713,0.3995 3.9011,1.2269 1.1298,0.8275 1.9548,2.0047 2.3469,3.3491 -1.0371,0.4291 -1.9419,1.1255 -2.6221,2.0183 -0.6802,0.8927 -1.1115,1.9498999 -1.2499,3.0636999 -0.176,0.792 0.088,1.408 0.704,1.496 h 0.264 c 0.616,0 0.88,-0.792 0.968,-1.408 0.2048,-1.0862 0.7218,-2.0891999 1.4876,-2.8861999 0.7658,-0.7971 1.7473,-1.3537 2.8244,-1.6018 h 0.792 c 0.742,-0.0498 1.4862,0.0577 2.1838,0.3155 0.6976,0.2578 1.3329,0.6601 1.8642,1.1805 0.88,0.988 1.23,2.3379999 0.946,3.6299999 z"
     fill="#828190"
     id="path4" />
  <path
     d="m 15.312,12.410388 c 0.0724,0.0069 0.1427,0.028 0.2068,0.0622 0.0641,0.0342 0.1209,0.0808 0.1669,0.137 0.046,0.0563 0.0804,0.1211 0.1013,0.1908 0.0208,0.0696 0.0276,0.1427 0.02,0.215 -0.0066,0.0652 -0.0252,0.1286 -0.055,0.187 l -2.2,5.368 h 3.3 c 0.228,0.012 0.407,0.2 0.407,0.429 -0.0066,0.0652 -0.0252,0.1286 -0.055,0.187 l -0.704,1.232 -4.224,6.776 c -0.088,0.088 -0.176,0.176 -0.264,0.176 -0.1041,-0.0138 -0.1989,-0.0672 -0.2645,-0.1492 -0.0656,-0.082 -0.0969,-0.1862 -0.0875,-0.2908 l 1.936,-5.808 H 9.724 c -0.0506,0 -0.1006,-0.01 -0.1473,-0.0293 -0.0467,-0.0194 -0.0892,-0.0477 -0.1249,-0.0835 -0.0358,-0.0357 -0.0641,-0.0782 -0.0835,-0.1249 -0.0193,-0.0467 -0.0293,-0.0968 -0.0293,-0.1473 -0.0108,-0.0471 -0.0108,-0.096 0,-0.143 l 0.44,-1.32 2.145,-6.424 c 0.0457,-0.1026 0.1196,-0.1901 0.2131,-0.2524 0.0934,-0.0623 0.2026,-0.0969 0.3149,-0.0996 l 2.772,-0.088"
     fill="#f4c53e"
     id="path6" />
  <path
     d="m 15.312,12.410388 c 0.0724,0.0069 0.1426,0.028 0.2068,0.0622 0.0641,0.0342 0.1209,0.0808 0.1669,0.137 0.046,0.0563 0.0804,0.1211 0.1013,0.1908 0.0208,0.0696 0.0276,0.1427 0.02,0.215 -0.0066,0.0652 -0.0252,0.1286 -0.055,0.187 l -2.2,5.368 h 3.3 c 0.228,0.012 0.407,0.2 0.407,0.429 -0.0066,0.0652 -0.0252,0.1286 -0.055,0.187 l -0.704,1.232 -4.224,6.776 c -0.088,0.088 -0.176,0.176 -0.264,0.176 -0.1041,-0.0138 -0.1989,-0.0672 -0.2645,-0.1492 -0.0656,-0.082 -0.0969,-0.1862 -0.0875,-0.2908 l 1.936,-5.808 H 9.724 c -0.0506,0 -0.1006,-0.01 -0.1473,-0.0293 -0.0467,-0.0194 -0.0892,-0.0477 -0.1249,-0.0835 -0.0358,-0.0357 -0.0641,-0.0782 -0.0835,-0.1249 -0.0193,-0.0467 -0.0293,-0.0967 -0.0293,-0.1473 -0.0108,-0.0471 -0.0108,-0.096 0,-0.143 l 0.44,-1.32 2.145,-6.424 c 0.0457,-0.1026 0.1196,-0.1901 0.2131,-0.2524 0.0934,-0.0623 0.2026,-0.0969 0.3149,-0.0996 l 2.772,-0.088 z m -0.088,-1.76 h -2.728 c -0.4623,0.0055 -0.912,0.1515 -1.2892,0.4187 -0.3773,0.2673 -0.6643,0.643 -0.8228,1.0773 l -2.112,6.424 -0.44,1.276 c -0.1351,0.3164 -0.1819,0.6636 -0.1354,1.0045 0.0464,0.3409 0.1845,0.6628 0.3994,0.9315 0.1955,0.2895 0.457,0.5283 0.7631,0.6966 0.306,0.1683 0.6478,0.2613 0.9969,0.2714 h 1.32 l -1.1,3.52 c -0.0942,0.3085 -0.1193,0.634 -0.0737,0.9534 0.0456,0.3193 0.1609,0.6248 0.3377,0.8946 0.388,0.54 1.007,0.866 1.672,0.88 0.3524,0.0069 0.7005,-0.0789 1.0094,-0.2488 0.3088,-0.1699 0.5677,-0.4179 0.7506,-0.7192 l 4.224,-6.776 0.704,-1.232 c 0.1772,-0.3238 0.27,-0.6869 0.27,-1.056 0,-0.3691 -0.0928,-0.7322 -0.27,-1.056 -0.1881,-0.3262 -0.4569,-0.5986 -0.7804,-0.7912 -0.3236,-0.1926 -0.6912,-0.2989 -1.0676,-0.3088 h -0.616 l 1.1,-2.904 c 0.1841,-0.3532 0.2803,-0.7457 0.2803,-1.144 0,-0.3983 -0.0962,-0.7908 -0.2803,-1.144 -0.2266,-0.3208 -0.5316,-0.5782 -0.8859,-0.7477 -0.3543,-0.1694 -0.7461,-0.2453 -1.1381,-0.2203 z"
     fill="#2a2a2a"
     id="path8" />
  <path
     d="m 19.078,25.705788 c 0.1164,1.4039 1.7412,2.2353 3.0802,1.7978 3.4205,-1.1177 1.6564,-6.0572 1.6564,-6.0572 0,0 -4.9796,1.3279 -4.7366,4.2594 z"
     fill="#0f79be"
     id="path10" />
</svg>
