<?xml version="1.0" encoding="UTF-8" standalone="no"?>
<svg
   xmlns:dc="http://purl.org/dc/elements/1.1/"
   xmlns:cc="http://creativecommons.org/ns#"
   xmlns:rdf="http://www.w3.org/1999/02/22-rdf-syntax-ns#"
   xmlns:svg="http://www.w3.org/2000/svg"
   xmlns="http://www.w3.org/2000/svg"
   xmlns:sodipodi="http://sodipodi.sourceforge.net/DTD/sodipodi-0.dtd"
   xmlns:inkscape="http://www.inkscape.org/namespaces/inkscape"
   width="39.5"
   height="33.946388"
   viewBox="0 0 39.5 33.946388"
   fill="none"
   version="1.1"
   id="svg24"
   sodipodi:docname="5.svg"
   inkscape:version="1.0.1 (1.0.1+r74)">
  <metadata
     id="metadata28">
    <rdf:RDF>
      <cc:Work
         rdf:about="">
        <dc:format>image/svg+xml</dc:format>
        <dc:type
           rdf:resource="http://purl.org/dc/dcmitype/StillImage" />
      </cc:Work>
    </rdf:RDF>
  </metadata>
  <sodipodi:namedview
     pagecolor="#ffffff"
     bordercolor="#666666"
     borderopacity="1"
     objecttolerance="10"
     gridtolerance="10"
     guidetolerance="10"
     inkscape:pageopacity="0"
     inkscape:pageshadow="2"
     inkscape:window-width="748"
     inkscape:window-height="480"
     id="namedview26"
     showgrid="false"
     inkscape:zoom="11.916667"
     inkscape:cx="20.976"
     inkscape:cy="9.9463881"
     inkscape:window-x="0"
     inkscape:window-y="0"
     inkscape:window-maximized="0"
     inkscape:current-layer="svg24" />
  <g
     clip-path="url(#clip0)"
     id="g10"
     transform="translate(-3.0239999,-14.053612)">
    <g
       filter="url(#filter0_f)"
       id="g4">
      <path
         d="m 31.574,33.9 h -17.6 c -2.7338,0 -4.95,2.2162 -4.95,4.95 0,2.7338 2.2162,4.95 4.95,4.95 h 17.6 c 2.7338,0 4.95,-2.2162 4.95,-4.95 0,-2.7338 -2.2162,-4.95 -4.95,-4.95 z"
         fill="#ffffff"
         id="path2" />
    </g>
    <path
       d="m 18.715,36.012 c 0.0263,-0.0496 0.0691,-0.0885 0.121,-0.11 h 1.276 v 5.423 h -1.397 v -3.3 l -1.1,1.43 h -0.957 c -0.0399,-0.0205 -0.074,-0.0508 -0.099,-0.088 l -1.1,-1.32 v 3.3 h -1.408 v -5.5 h 1.364 c 0.0477,0.0275 0.089,0.0651 0.121,0.11 l 1.584,1.98 z m 3.707,5.291 H 20.97 V 35.88 h 1.452 z m 1.43,-1.397 c 0.308,0.066 0.583,0.11 0.836,0.143 h 0.649 c 0.572,0 0.858,-0.143 0.858,-0.44 C 26.1867,39.5662 26.1697,39.5256 26.1451,39.4897 26.1205,39.4537 26.0888,39.4232 26.052,39.4 25.8588,39.3262 25.6602,39.2674 25.458,39.224 L 24.952,39.07 c -0.2641,-0.0678 -0.5248,-0.1486 -0.781,-0.242 -0.2111,-0.0773 -0.4081,-0.1887 -0.583,-0.33 -0.1622,-0.1213 -0.2879,-0.285 -0.363,-0.473 -0.098,-0.1979 -0.1434,-0.4176 -0.132,-0.638 -0.014,-0.25 0.047,-0.5 0.176,-0.715 0.12,-0.2 0.286,-0.37 0.484,-0.495 0.224,-0.135 0.47,-0.232 0.726,-0.286 0.303,-0.067 0.613,-0.1 0.924,-0.099 0.343,0.01 0.685,0.046 1.023,0.11 0.334,0.064 0.659,0.168 0.968,0.308 L 27.152,37.2 H 25.37 c -0.2268,-0.022 -0.4552,-0.022 -0.682,0 -0.0293,-0.0016 -0.0586,0.003 -0.086,0.0135 -0.0274,0.0105 -0.0523,0.0266 -0.0731,0.0474 -0.0207,0.0207 -0.0369,0.0456 -0.0474,0.073 -0.0105,0.0274 -0.0151,0.0568 -0.0135,0.0861 0,0.102 0.068,0.191 0.165,0.22 0.175,0.082 0.36,0.14 0.55,0.176 l 0.506,0.121 c 0.341,0.088 0.638,0.176 0.88,0.264 0.2216,0.0764 0.4296,0.1879 0.616,0.33 0.153,0.12 0.274,0.274 0.352,0.451 0.075,0.2 0.112,0.413 0.11,0.627 0.002,0.27 -0.055,0.535 -0.165,0.781 -0.1192,0.23 -0.2856,0.4322 -0.4885,0.5934 -0.2028,0.1611 -0.4375,0.2775 -0.6885,0.3416 -0.298,0.079 -0.605,0.12 -0.913,0.121 -0.4388,0.0025 -0.8757,-0.0567 -1.298,-0.176 -0.3835,-0.1006 -0.753,-0.2484 -1.1,-0.44 l 0.341,-0.968 z m 5.665,-2.827 H 27.724 V 35.88 h 5.06 v 1.199 h -1.76 v 4.224 H 29.517 Z M 34.214,19.6 c -0.9422,-0.0786 -1.8909,-0.0193 -2.816,0.176 -0.5139,-1.6878 -1.5664,-3.1609 -2.9967,-4.1938 -1.4303,-1.033 -3.1595,-1.5691 -4.9233,-1.5262 -3.96,0 -7.04,2.464 -7.48,5.632 C 15.6892,19.6092 15.37,19.5795 15.052,19.6 h -1.1 C 10.08,19.864 7,22.68 7,26.112 c 0,3.608 3.3,6.512 7.48,6.512 h 16.83 c 4.048,0 8.272,-1.584 8.272,-7.128 0.0034,-1.4757 -0.5456,-2.8992 -1.5391,-3.9904 C 37.0494,20.4144 35.6835,19.7346 34.214,19.6 Z m 3.608,6.688 c -0.44,4.136 -4.84,4.488 -6.16,4.488 H 14.326 c -1.672,0 -5.192,-1.408 -5.5,-4.048 C 8.75979,26.0973 8.82322,25.4597 9.01238,24.8543 9.20154,24.249 9.51245,23.6888 9.926,23.208 c 0.4572,-0.5442 1.021,-0.9889 1.6567,-1.3067 0.6356,-0.3178 1.3297,-0.5021 2.0393,-0.5413 h 0.902 c 0.6472,-0.0271 1.2905,0.1125 1.8683,0.4052 0.5778,0.2928 1.0707,0.7289 1.4317,1.2668 0,0 0.176,0.176 0.176,0.264 0.089,0.1818 0.2265,0.3355 0.3973,0.4442 0.1708,0.1087 0.3683,0.1681 0.5707,0.1718 0.1491,0.0125 0.2983,-0.0236 0.4252,-0.1029 0.1269,-0.0794 0.2247,-0.1976 0.2788,-0.3371 0.0765,-0.2654 0.0758,-0.5471 -0.0021,-0.8121 -0.078,-0.265 -0.2299,-0.5022 -0.4379,-0.6839 -0.44,-0.44 -0.704,-0.616 -0.88,-0.792 -0.176,-0.176 -0.352,-0.264 -0.44,-0.528 0.1587,-1.3355 0.8109,-2.5634 1.8285,-3.4426 1.0176,-0.8792 2.3272,-1.3463 3.6715,-1.3094 1.4,-0.0318 2.7713,0.3995 3.9011,1.2269 1.1298,0.8274 1.9548,2.0047 2.3469,3.3491 -1.0371,0.4291 -1.9419,1.1255 -2.6221,2.0183 -0.6802,0.8927 -1.1115,1.9499 -1.2499,3.0637 -0.176,0.792 0.088,1.408 0.704,1.496 h 0.264 c 0.616,0 0.88,-0.792 0.968,-1.408 0.2048,-1.0862 0.7218,-2.0892 1.4876,-2.8862 0.7658,-0.7971 1.7473,-1.3537 2.8244,-1.6018 h 0.792 c 1.5,-0.1 2.973,0.445 4.048,1.496 0.4397,0.4859 0.7569,1.0698 0.9253,1.7032 0.1684,0.6333 0.183,1.2976 0.0427,1.9378 z"
       fill="#2a2a2a"
       id="path6" />
    <path
       d="m 37.822,26.299 c -0.44,4.136 -4.84,4.488 -6.16,4.488 H 14.326 c -1.672,0 -5.19201,-1.408 -5.50001,-4.048 C 8.75979,26.1083 8.82321,25.4707 9.01237,24.8654 9.20153,24.26 9.51244,23.6998 9.92599,23.219 10.3832,22.6749 10.947,22.2302 11.5827,21.9123 c 0.6356,-0.3178 1.3297,-0.502 2.0393,-0.5413 h 0.902 c 0.6472,-0.0271 1.2904,0.1125 1.8682,0.4052 0.5778,0.2928 1.0708,0.729 1.4318,1.2668 0,0 0.176,0.176 0.176,0.264 0.089,0.1818 0.2265,0.3355 0.3973,0.4442 0.1708,0.1087 0.3683,0.1681 0.5707,0.1718 0.1491,0.0125 0.2983,-0.0236 0.4252,-0.1029 0.1269,-0.0793 0.2247,-0.1976 0.2788,-0.3371 0.0765,-0.2654 0.0758,-0.5471 -0.0021,-0.8121 -0.078,-0.265 -0.2299,-0.5022 -0.4379,-0.6839 -0.44,-0.44 -0.704,-0.616 -0.88,-0.792 -0.176,-0.176 -0.352,-0.264 -0.44,-0.528 0.1587,-1.3355 0.8109,-2.5633 1.8285,-3.4426 1.0176,-0.8792 2.3272,-1.3463 3.6715,-1.3094 1.4,-0.0318 2.7713,0.3995 3.9011,1.2269 1.1298,0.8275 1.9548,2.0047 2.3469,3.3491 -1.0371,0.4291 -1.9419,1.1255 -2.6221,2.0183 -0.6802,0.8927 -1.1115,1.9499 -1.2499,3.0637 -0.176,0.792 0.088,1.408 0.704,1.496 h 0.264 c 0.616,0 0.88,-0.792 0.968,-1.408 0.2048,-1.0862 0.7218,-2.0892 1.4876,-2.8862 0.7658,-0.7971 1.7473,-1.3537 2.8244,-1.6018 h 0.792 c 1.5,-0.1 2.973,0.445 4.048,1.496 0.88,0.988 1.23,2.338 0.946,3.63 z"
       fill="#ffffff"
       id="path8" />
  </g>
  <defs
     id="defs22">
    <filter
       id="filter0_f"
       x="3.0239999"
       y="27.9"
       width="39.5"
       height="21.9"
       filterUnits="userSpaceOnUse"
       color-interpolation-filters="sRGB">
      <feFlood
         flood-opacity="0"
         result="BackgroundImageFix"
         id="feFlood12" />
      <feBlend
         mode="normal"
         in="SourceGraphic"
         in2="BackgroundImageFix"
         result="shape"
         id="feBlend14" />
      <feGaussianBlur
         stdDeviation="3"
         result="effect1_foregroundBlur"
         id="feGaussianBlur16" />
    </filter>
    <clipPath
       id="clip0">
      <rect
         width="48"
         height="48"
         fill="#ffffff"
         id="rect19"
         x="0"
         y="0" />
    </clipPath>
  </defs>
</svg>
