<?xml version="1.0" encoding="UTF-8" standalone="no"?>
<svg
   xmlns:dc="http://purl.org/dc/elements/1.1/"
   xmlns:cc="http://creativecommons.org/ns#"
   xmlns:rdf="http://www.w3.org/1999/02/22-rdf-syntax-ns#"
   xmlns:svg="http://www.w3.org/2000/svg"
   xmlns="http://www.w3.org/2000/svg"
   xmlns:sodipodi="http://sodipodi.sourceforge.net/DTD/sodipodi-0.dtd"
   xmlns:inkscape="http://www.inkscape.org/namespaces/inkscape"
   width="32.209225"
   height="18.04241"
   viewBox="0 0 32.209225 18.04241"
   fill="none"
   version="1.1"
   id="svg8"
   sodipodi:docname="6.svg"
   inkscape:version="1.0.1 (1.0.1+r74)">
  <metadata
     id="metadata14">
    <rdf:RDF>
      <cc:Work
         rdf:about="">
        <dc:format>image/svg+xml</dc:format>
        <dc:type
           rdf:resource="http://purl.org/dc/dcmitype/StillImage" />
      </cc:Work>
    </rdf:RDF>
  </metadata>
  <defs
     id="defs12" />
  <sodipodi:namedview
     pagecolor="#ffffff"
     bordercolor="#666666"
     borderopacity="1"
     objecttolerance="10"
     gridtolerance="10"
     guidetolerance="10"
     inkscape:pageopacity="0"
     inkscape:pageshadow="2"
     inkscape:window-width="748"
     inkscape:window-height="480"
     id="namedview10"
     showgrid="false"
     inkscape:zoom="11.916667"
     inkscape:cx="16.605227"
     inkscape:cy="9.1212054"
     inkscape:window-x="0"
     inkscape:window-y="0"
     inkscape:window-maximized="0"
     inkscape:current-layer="svg8" />
  <path
     fill-rule="evenodd"
     clip-rule="evenodd"
     d="M 0.60522653,1.1212054 H 31.605227 V 17.121205 H 0.60522653 Z"
     fill="#ffffff"
     id="path2" />
  <path
     d="m 31.329227,0.00120538 c 0.1098,-0.0059 0.2197,0.0099 0.3234,0.0465 0.1037,0.0366 0.1992,0.0933 0.2809,0.1669 0.0818,0.0736 0.1482,0.1625 0.1955,0.2618 0.0473,0.0993 0.0746,0.207 0.0802,0.3168 V 17.293205 c -0.0296,0.2108 -0.1356,0.4035 -0.2978,0.5413 -0.1622,0.1379 -0.3694,0.2115 -0.5822,0.2067 H 0.88121653 c -0.10982,0.0059 -0.21973,-0.0099 -0.32343,-0.0465 -0.10371,-0.0366 -0.19917,-0.0933 -0.28092,-0.1669 -0.08174,-0.0736 -0.14817,-0.1625 -0.19547,-0.2618 -0.0473,-0.0993 -0.07455,-0.207 -0.08018,-0.3168 V 0.88120538 c -0.00593,-0.1098 0.00986,-0.2197 0.04648,-0.3234 0.03662,-0.1037 0.09334,-0.1992 0.16691,-0.2809 0.07357,-0.0818 0.16255,-0.1482 0.26184,-0.1955 0.09929,-0.0473 0.20694,-0.0746 0.31677,-0.0802 z M 1.6292165,16.281205 H 30.405227 V 1.7612054 H 1.6732165 Z"
     fill="#2a2a2a"
     id="path4" />
  <path
     d="m 12.024227,6.2822054 v 1.199 H 9.3402265 v 1.177 h 2.4200005 v 1.177 H 9.3402265 v 1.8699996 h -1.452 V 6.2822054 Z m 5.929,2.739 c 0.005,0.396 -0.07,0.789 -0.22,1.1549996 -0.143,0.33 -0.348,0.628 -0.605,0.88 -0.257,0.244 -0.56,0.435 -0.891,0.561 -0.7076,0.2751 -1.4925,0.2751 -2.2,0 -0.3314,-0.1258 -0.6343,-0.3165 -0.891,-0.561 -0.2631,-0.2673 -0.4682,-0.586 -0.6026,-0.9361 -0.1344,-0.3500996 -0.1951,-0.7241996 -0.1784,-1.0988996 -0.0027,-0.3778 0.0722,-0.7522 0.22,-1.1 0.14,-0.331 0.346,-0.63 0.605,-0.88 0.26,-0.244 0.561,-0.438 0.891,-0.572 0.7075,-0.275 1.4924,-0.275 2.2,0 0.33,0.134 0.632,0.328 0.891,0.572 0.259,0.25 0.465,0.549 0.605,0.88 0.128,0.352 0.188,0.725 0.176,1.1 z m -1.518,0 c 0.0215,-0.3635 -0.0966,-0.7215 -0.33,-1.001 -0.2602,-0.2327 -0.597,-0.3613 -0.946,-0.3613 -0.3491,0 -0.6859,0.1286 -0.946,0.3613 -0.2136,0.2921 -0.3288,0.6446 -0.3288,1.0065 0,0.3619 0.1152,0.7144 0.3288,1.0064996 0.2601,0.2327 0.5969,0.3614 0.946,0.3614 0.349,0 0.6858,-0.1287 0.946,-0.3614 0.235,-0.2829996 0.353,-0.6449996 0.33,-1.0119996 z m 6.27,-0.737 -0.847,-0.517 c -0.1263,-0.0837 -0.2632,-0.1502 -0.407,-0.198 -0.1399,-0.0373 -0.2842,-0.0558 -0.429,-0.055 -0.1594,-8e-4 -0.317,0.0329 -0.462,0.099 -0.145,0.0653 -0.273,0.1632 -0.374,0.286 -0.1156,0.1324 -0.2052,0.2854 -0.264,0.451 -0.06,0.196 -0.089,0.4 -0.088,0.605 -0.033,0.4 0.098,0.798 0.363,1.0999996 0.278,0.27 0.658,0.41 1.045,0.385 h 1.056 c 0.0061,-0.0253 0.0061,-0.0517 0,-0.077 V 9.9012054 h -0.693 v -0.946 h 1.914 c 0.0687,-0.0164 0.1403,-0.0164 0.209,0 0.02,0.057 0.02,0.12 0,0.176 v 2.7169996 h -1.023 l -0.22,-0.627 -0.396,0.231 c -0.356,0.2114 -0.763,0.3217 -1.177,0.319 -0.3783,0.007 -0.7535,-0.068 -1.1,-0.22 -0.3135,-0.1332 -0.5948,-0.332 -0.825,-0.583 -0.2343,-0.2583 -0.4139,-0.5614 -0.528,-0.891 -0.1083,-0.3412996 -0.1603,-0.6979996 -0.154,-1.0559996 -0.005,-0.4 0.074,-0.798 0.231,-1.166 0.1362,-0.3292 0.3397,-0.6265 0.5972,-0.8727 0.2576,-0.2462 0.5637,-0.436 0.8988,-0.5573 0.352,-0.132 0.724,-0.2 1.1,-0.198 0.5352,-0.006 1.0613,0.1389 1.518,0.418 0.205,0.127 0.39,0.282 0.55,0.462 0.15,0.18 0.272,0.38 0.363,0.594 z"
     fill="#2a2a2a"
     id="path6" />
</svg>
