<?xml version="1.0" encoding="UTF-8" standalone="no"?>
<svg
   xmlns:dc="http://purl.org/dc/elements/1.1/"
   xmlns:cc="http://creativecommons.org/ns#"
   xmlns:rdf="http://www.w3.org/1999/02/22-rdf-syntax-ns#"
   xmlns:svg="http://www.w3.org/2000/svg"
   xmlns="http://www.w3.org/2000/svg"
   xmlns:sodipodi="http://sodipodi.sourceforge.net/DTD/sodipodi-0.dtd"
   xmlns:inkscape="http://www.inkscape.org/namespaces/inkscape"
   width="32.582047"
   height="18.570389"
   viewBox="0 0 32.582047 18.570389"
   fill="none"
   version="1.1"
   id="svg6"
   sodipodi:docname="8.svg"
   inkscape:version="1.0.1 (1.0.1+r74)">
  <metadata
     id="metadata12">
    <rdf:RDF>
      <cc:Work
         rdf:about="">
        <dc:format>image/svg+xml</dc:format>
        <dc:type
           rdf:resource="http://purl.org/dc/dcmitype/StillImage" />
      </cc:Work>
    </rdf:RDF>
  </metadata>
  <defs
     id="defs10" />
  <sodipodi:namedview
     pagecolor="#ffffff"
     bordercolor="#666666"
     borderopacity="1"
     objecttolerance="10"
     gridtolerance="10"
     guidetolerance="10"
     inkscape:pageopacity="0"
     inkscape:pageshadow="2"
     inkscape:window-width="748"
     inkscape:window-height="480"
     id="namedview8"
     showgrid="false"
     inkscape:zoom="11.916667"
     inkscape:cx="17"
     inkscape:cy="9.9463881"
     inkscape:window-x="0"
     inkscape:window-y="0"
     inkscape:window-maximized="0"
     inkscape:current-layer="svg6" />
  <path
     d="m 27.214,5.5463881 c -0.9422,-0.0794 -1.891,-0.0201 -2.816,0.176 -0.5139,-1.6878 -1.5664,-3.1609 -2.9967,-4.1938 -1.4303,-1.03299996 -3.1595,-1.56909996 -4.9233,-1.52619996 -3.96,0 -7.04,2.46399996 -7.48,5.63199996 -0.3088,-0.0788 -0.628,-0.1085 -0.946,-0.088 h -1.1 C 3.08,5.8103881 0,8.6263881 0,12.058388 c 0,3.608 3.3,6.512 7.48,6.512 h 16.83 c 4.048,0 8.272,-1.584 8.272,-7.128 0.0059,-1.4763999 -0.5423,-2.9012999 -1.5362,-3.9929999 -0.994,-1.0917 -2.3613,-1.7708 -3.8318,-1.903 z m 3.608,6.6879999 c -0.44,4.136 -4.84,4.488 -6.16,4.488 H 7.326 c -1.672,0 -5.192,-1.408 -5.5,-4.048 -0.06621,-0.6307 -0.00278,-1.2683 0.18638,-1.8737 0.18916,-0.6053 0.50007,-1.1654999 0.91362,-1.6462999 0.4572,-0.5442 1.021,-0.9889 1.6567,-1.3067 0.6356,-0.3178 1.3297,-0.5021 2.0393,-0.5413 h 0.902 c 0.647,-0.026 1.2899,0.114 1.8675,0.4066 0.5777,0.2927 1.0708,0.7283 1.4325,1.2654 0,0 0.176,0.176 0.176,0.264 0.089,0.1818 0.2265,0.3355 0.3973,0.4442 0.1708,0.1087 0.3683,0.1681 0.5707,0.1718 0.1491,0.0125 0.2983,-0.0236 0.4252,-0.1029 0.1269,-0.0794 0.2247,-0.1976 0.2788,-0.3371 0.0765,-0.2654 0.0758,-0.5471 -0.0021,-0.8121 -0.078,-0.265 -0.2299,-0.5022 -0.4379,-0.6839 -0.44,-0.44 -0.704,-0.616 -0.88,-0.792 -0.176,-0.176 -0.352,-0.264 -0.44,-0.528 0.1587,-1.3355 0.8109,-2.5634 1.8285,-3.4426 1.0176,-0.8792 2.3272,-1.3463 3.6715,-1.3094 1.4,-0.0318 2.7713,0.3995 3.9011,1.2269 1.1298,0.8274 1.9548,2.0047 2.3469,3.3491 -1.0371,0.4291 -1.9419,1.1255 -2.6221,2.0183 -0.6802,0.8927 -1.1115,1.9498999 -1.2499,3.0636999 -0.176,0.792 0.088,1.408 0.704,1.496 h 0.264 c 0.616,0 0.88,-0.792 0.968,-1.408 0.2048,-1.0862 0.7218,-2.0891999 1.4876,-2.8861999 0.7658,-0.7971 1.7473,-1.3537 2.8244,-1.6018 h 0.792 c 0.742,-0.0498 1.4862,0.0577 2.1838,0.3155 0.6976,0.2578 1.3329,0.6601 1.8642,1.1805 0.4397,0.4859 0.7569,1.0698 0.9253,1.7031999 0.1684,0.6333 0.183,1.2976 0.0427,1.9378 z"
     fill="#2a2a2a"
     id="path2" />
  <path
     d="m 30.8214,12.245388 c -0.44,4.136 -4.84,4.488 -6.16,4.488 H 7.3254 c -1.672,0 -5.19197,-1.408 -5.49997,-4.048 -0.06621,-0.6307 -0.00278,-1.2683 0.18638,-1.8736 0.18916,-0.6054 0.50006,-1.1655999 0.91362,-1.6463999 0.45717,-0.5441 1.02097,-0.9888 1.65667,-1.3067 0.6357,-0.3178 1.3297,-0.502 2.0393,-0.5413 h 0.902 c 0.647,-0.026 1.2899,0.114 1.8676,0.4067 0.5776,0.2926 1.0707,0.7282 1.4324,1.2653 0,0 0.176,0.176 0.176,0.264 0.0891,0.1818 0.2266,0.3355 0.3974,0.4442 0.1707,0.1087 0.3682,0.1681 0.5706,0.1718 0.1491,0.0125 0.2983,-0.0236 0.4252,-0.1029 0.1269,-0.0793 0.2247,-0.1976 0.2788,-0.3371 0.0766,-0.2654 0.0758,-0.5471 -0.0021,-0.8121 -0.0779,-0.265 -0.2298,-0.5022 -0.4379,-0.6839 -0.44,-0.44 -0.704,-0.616 -0.88,-0.792 -0.176,-0.176 -0.352,-0.264 -0.44,-0.528 0.1587,-1.3355 0.8109,-2.5633 1.8285,-3.4426 1.0176,-0.8792 2.3272,-1.3463 3.6715,-1.3094 1.4,-0.0318 2.7714,0.3995 3.9011,1.2269 1.1298,0.8275 1.9548,2.0047 2.3469,3.3491 -1.0371,0.4291 -1.9418,1.1255 -2.622,2.0183 -0.6802,0.8927 -1.1115,1.9498999 -1.25,3.0636999 -0.176,0.792 0.088,1.408 0.704,1.496 h 0.264 c 0.616,0 0.88,-0.792 0.968,-1.408 0.2049,-1.0862 0.7218,-2.0891999 1.4876,-2.8861999 0.7658,-0.7971 1.7473,-1.3537 2.8244,-1.6018 h 0.792 c 0.7421,-0.0498 1.4863,0.0577 2.1838,0.3155 0.6976,0.2578 1.3329,0.6601 1.8642,1.1805 0.88,0.988 1.23,2.3379999 0.946,3.6299999 z"
     fill="#c3c5c7"
     id="path4" />
</svg>
